<svg width="63" height="63" viewBox="0 0 63 63" fill="none" xmlns="http://www.w3.org/2000/svg">
<path d="M37.6738 24.0932V32.4728H45.1865C45.7644 32.4728 46.0533 33.0507 46.0533 33.6286L44.8975 39.1186C44.8975 39.4075 44.3196 39.6965 44.0307 39.6965H37.6738V60.7897H29.0054V39.9854H24.0932C23.5153 39.9854 23.2264 39.6965 23.2264 39.1186V33.6286C23.2264 33.0507 23.5153 32.7617 24.0932 32.7617H29.0054V23.2264C29.0054 18.3143 32.7617 14.5579 37.6738 14.5579H45.4754C46.0533 14.5579 46.3423 14.8469 46.3423 15.4248V22.3596C46.3423 22.9375 46.0533 23.2264 45.4754 23.2264H38.5407C37.9628 23.2264 37.6738 23.5154 37.6738 24.0932Z" stroke="#292D32" stroke-width="4.33423" stroke-miterlimit="10" stroke-linecap="round"/>
<path d="M40.5633 60.7897H23.2264C8.77897 60.7897 3 55.0107 3 40.5633V23.2264C3 8.77897 8.77897 3 23.2264 3H40.5633C55.0107 3 60.7897 8.77897 60.7897 23.2264V40.5633C60.7897 55.0107 55.0107 60.7897 40.5633 60.7897Z" stroke="#292D32" stroke-width="4.33423" stroke-linecap="round" stroke-linejoin="round"/>
</svg>
