<svg width="63" height="63" viewBox="0 0 63 63" fill="none" xmlns="http://www.w3.org/2000/svg">
<path d="M22.8433 60.7897H40.1803C54.6277 60.7897 60.4067 55.0107 60.4067 40.5633V23.2264C60.4067 8.77897 54.6277 3 40.1803 3H22.8433C8.39592 3 2.61694 8.77897 2.61694 23.2264V40.5633C2.61694 55.0107 8.39592 60.7897 22.8433 60.7897Z" stroke="#292D32" stroke-width="4.33423" stroke-linecap="round" stroke-linejoin="round"/>
<path d="M31.5118 42.0081C37.0972 42.0081 41.625 37.4802 41.625 31.8949C41.625 26.3095 37.0972 21.7817 31.5118 21.7817C25.9264 21.7817 21.3986 26.3095 21.3986 31.8949C21.3986 37.4802 25.9264 42.0081 31.5118 42.0081Z" stroke="#292D32" stroke-width="4.33423" stroke-linecap="round" stroke-linejoin="round"/>
<path d="M47.7972 17.4474H47.8308" stroke="#292D32" stroke-width="5.77897" stroke-linecap="round" stroke-linejoin="round"/>
</svg>
