<svg width="58" height="48" viewBox="0 0 58 48" fill="none" xmlns="http://www.w3.org/2000/svg">
<path d="M42.3343 47.0381H15.4554C6.20903 47.0381 0 40.8291 0 31.5828V15.4554C0 6.20903 6.20903 0 15.4554 0H42.3343C51.5807 0 57.7897 6.20903 57.7897 15.4554V31.5828C57.7897 40.8291 51.5807 47.0381 42.3343 47.0381ZM15.4554 4.03184C8.52062 4.03184 4.03184 8.52062 4.03184 15.4554V31.5828C4.03184 38.5175 8.52062 43.0063 15.4554 43.0063H42.3343C49.2691 43.0063 53.7579 38.5175 53.7579 31.5828V15.4554C53.7579 8.52062 49.2691 4.03184 42.3343 4.03184H15.4554Z" fill="#292D32"/>
<path d="M25.1041 33.0079C24.3246 33.0079 23.572 32.8197 22.8999 32.4434C21.3409 31.5564 20.4269 29.7555 20.4269 27.5246V19.5684C20.4269 17.3375 21.3141 15.5366 22.8999 14.6496C24.459 13.7626 26.4747 13.9238 28.3831 15.0796L35.0224 19.0577C36.8502 20.1597 37.8982 21.7994 37.8982 23.5465C37.8982 25.2936 36.8502 26.9332 35.0224 28.0353L28.3831 32.0134C27.281 32.6585 26.1524 33.0079 25.1041 33.0079ZM25.1041 18.0632C24.9966 18.0632 24.9157 18.0901 24.8619 18.117C24.6738 18.2245 24.4588 18.7083 24.4588 19.5415V27.4977C24.4588 28.3041 24.6738 28.7879 24.8619 28.9223C25.077 29.0298 25.5879 28.976 26.2868 28.546L32.9256 24.5679C33.5976 24.1647 33.8398 23.7615 33.8398 23.5196C33.8398 23.2777 33.5976 22.9014 32.9256 22.4713L26.2868 18.4933C25.803 18.1976 25.3729 18.0632 25.1041 18.0632Z" fill="#292D32"/>
</svg>
