<svg xmlns="http://www.w3.org/2000/svg" xmlns:xlink="http://www.w3.org/1999/xlink" width="500" zoomAndPan="magnify" viewBox="0 0 375 374.999991" height="500" preserveAspectRatio="xMidYMid meet" version="1.0"><defs><clipPath id="d4768ce55f"><path d="M 32 31 L 344.128906 31 L 344.128906 343 L 32 343 Z M 32 31 " clip-rule="nonzero"/></clipPath></defs><g clip-path="url(#d4768ce55f)"><path fill="#000000" d="M 344.128906 110.738281 C 344.128906 103.035156 331.421875 95.71875 318.710938 92.25 L 318.710938 91.480469 C 319.480469 90.710938 319.867188 90.324219 320.636719 89.554688 C 321.40625 88.785156 321.023438 87.628906 320.25 86.859375 C 319.867188 86.472656 319.480469 86.472656 318.710938 86.472656 L 319.097656 78 C 320.25 76.847656 321.40625 75.691406 322.5625 74.535156 C 323.332031 73.765625 323.332031 72.609375 322.175781 71.839844 C 321.40625 71.070312 320.25 71.070312 319.480469 72.222656 C 319.480469 72.222656 319.480469 72.609375 319.097656 72.609375 L 319.480469 59.898438 C 320.25 59.128906 320.636719 58.359375 321.40625 57.589844 C 321.792969 56.820312 321.792969 55.664062 320.636719 54.894531 C 320.25 54.507812 319.867188 54.507812 319.480469 54.507812 L 319.867188 46.035156 C 319.867188 36.792969 298.683594 31.785156 279.042969 31.785156 C 259.398438 31.785156 238.21875 36.023438 238.21875 45.265625 L 238.21875 56.820312 C 238.21875 56.820312 237.832031 56.433594 237.832031 56.433594 C 237.0625 55.664062 235.90625 56.046875 235.136719 56.820312 C 234.367188 57.589844 234.75 58.746094 235.523438 59.515625 C 235.523438 59.515625 236.675781 60.285156 238.21875 61.441406 L 238.21875 72.996094 C 237.832031 72.996094 237.449219 72.996094 237.449219 72.996094 C 236.292969 72.996094 235.523438 73.378906 235.136719 74.535156 C 235.136719 75.691406 235.523438 76.460938 236.675781 76.847656 C 236.675781 76.847656 237.449219 76.847656 238.21875 77.230469 L 238.21875 88.398438 C 237.0625 88.015625 236.292969 88.785156 235.90625 89.941406 C 235.523438 91.097656 236.292969 91.867188 237.449219 92.25 C 237.449219 92.25 237.832031 92.25 238.21875 92.25 L 238.21875 93.792969 C 232.054688 95.71875 218.191406 101.496094 215.109375 108.425781 C 214.722656 108.8125 214.339844 109.199219 214.339844 109.96875 L 214.339844 110.738281 C 214.339844 111.121094 214.339844 111.121094 214.339844 111.507812 C 214.339844 111.507812 214.339844 111.894531 214.339844 111.894531 L 212.027344 268.257812 L 188.535156 254.777344 C 196.238281 236.292969 193.542969 219.347656 182.371094 212.796875 C 182.371094 212.796875 182.371094 212.796875 181.988281 212.796875 C 181.988281 212.796875 181.988281 212.796875 181.601562 212.796875 L 88.015625 162.730469 L 87.246094 162.347656 C 73.765625 155.414062 53.738281 164.65625 41.414062 183.144531 C 33.710938 194.699219 30.628906 207.792969 32.941406 218.191406 C 34.480469 224.351562 37.5625 229.359375 42.570312 232.054688 L 130.378906 291.367188 C 133.460938 293.292969 137.3125 294.0625 141.164062 294.0625 C 150.792969 294.0625 161.960938 288.671875 171.589844 279.042969 L 215.496094 305.617188 C 215.496094 305.617188 215.878906 305.617188 215.878906 305.617188 C 216.265625 306 216.265625 306.386719 216.648438 306.386719 C 217.804688 306.773438 219.347656 307.15625 220.5 307.15625 C 223.96875 307.15625 226.664062 305.617188 228.203125 304.847656 L 279.425781 342.589844 C 279.8125 342.972656 280.199219 342.972656 280.582031 342.972656 C 281.351562 342.972656 281.738281 342.589844 282.121094 342.203125 C 282.894531 341.433594 282.507812 340.277344 281.738281 339.507812 L 240.144531 309.082031 L 284.433594 338.738281 C 284.820312 339.121094 285.203125 339.121094 285.589844 339.121094 C 286.359375 339.121094 286.746094 338.738281 287.128906 338.351562 C 287.898438 337.582031 287.515625 336.425781 286.746094 335.65625 L 242.070312 305.230469 L 289.441406 335.65625 C 289.824219 336.042969 290.210938 336.042969 290.597656 336.042969 C 291.367188 336.042969 291.75 335.65625 292.136719 335.273438 C 292.523438 334.5 292.523438 333.347656 291.367188 332.574219 L 249.773438 305.617188 L 294.449219 331.804688 C 294.832031 331.804688 295.21875 332.191406 295.601562 332.191406 C 296.371094 332.191406 296.757812 331.804688 297.144531 331.421875 C 297.527344 330.648438 297.527344 329.496094 296.371094 328.722656 L 263.25 309.46875 L 297.914062 328.722656 C 298.296875 328.722656 298.683594 329.109375 298.683594 329.109375 C 299.453125 329.109375 299.839844 328.722656 300.222656 327.953125 C 300.609375 327.183594 300.222656 326.027344 299.453125 325.257812 L 274.804688 311.394531 L 302.148438 324.488281 C 302.535156 324.488281 302.535156 324.488281 302.921875 324.488281 C 303.691406 324.488281 304.460938 324.101562 304.847656 323.332031 C 305.230469 322.5625 304.847656 321.40625 304.074219 320.636719 L 289.441406 314.089844 C 320.25 312.546875 342.203125 302.921875 342.203125 289.824219 C 342.203125 289.441406 342.203125 289.441406 342.203125 289.054688 Z M 279.042969 34.867188 C 302.148438 34.867188 316.015625 41.027344 316.015625 45.265625 C 316.015625 49.5 301.765625 55.664062 279.042969 55.664062 C 255.933594 55.664062 242.070312 49.5 242.070312 45.265625 C 242.070312 41.027344 255.933594 34.867188 279.042969 34.867188 Z M 242.070312 63.367188 C 247.460938 65.675781 255.933594 68.371094 268.644531 68.371094 C 269.796875 68.371094 270.570312 67.601562 270.570312 66.449219 C 270.570312 65.292969 269.796875 64.523438 268.644531 64.523438 C 255.546875 64.523438 246.691406 61.441406 242.070312 59.128906 L 242.070312 51.8125 C 249 57.203125 264.40625 59.898438 279.042969 59.898438 C 293.675781 59.898438 309.082031 57.203125 316.015625 51.8125 L 316.015625 57.972656 C 299.453125 77.617188 256.320312 74.921875 242.070312 73.378906 Z M 242.070312 77.230469 C 246.691406 77.617188 254.007812 78.386719 262.480469 78.386719 C 280.199219 78.386719 302.921875 75.691406 316.015625 63.75 L 315.246094 76.074219 C 294.0625 94.5625 254.777344 90.324219 242.070312 88.398438 Z M 265.949219 94.175781 C 282.121094 94.175781 301.378906 91.480469 315.246094 81.082031 L 314.859375 89.941406 C 296.371094 107.65625 254.007812 103.035156 241.683594 101.109375 L 241.683594 92.636719 C 247.074219 93.023438 255.933594 94.175781 265.949219 94.175781 Z M 314.859375 94.949219 L 314.472656 108.042969 C 305.230469 116.515625 282.894531 116.898438 273.648438 116.898438 C 256.320312 116.515625 245.148438 110.738281 242.070312 109.199219 L 242.070312 104.960938 C 247.460938 105.730469 257.089844 106.886719 268.257812 106.886719 C 284.046875 106.886719 302.535156 104.574219 314.859375 94.949219 Z M 238.21875 97.257812 L 238.21875 100.339844 C 237.449219 100.339844 236.675781 101.109375 236.675781 101.878906 C 236.292969 103.035156 237.0625 103.804688 238.21875 104.191406 L 238.21875 110.351562 C 238.21875 111.121094 238.601562 111.507812 238.988281 111.894531 C 239.371094 112.277344 252.082031 120.367188 273.265625 120.75 C 274.035156 120.75 275.191406 120.75 275.960938 120.75 C 288.671875 120.75 308.699219 119.210938 317.554688 110.351562 C 317.941406 109.96875 317.941406 109.582031 317.941406 109.199219 L 318.324219 96.488281 C 331.804688 100.339844 339.894531 106.886719 339.894531 111.121094 C 339.894531 119.597656 314.859375 128.839844 278.65625 128.839844 C 272.878906 128.839844 267.488281 128.453125 262.480469 128.070312 C 236.292969 125.371094 218.960938 118.054688 218.191406 111.121094 L 218.191406 109.96875 C 218.960938 106.117188 228.972656 100.339844 238.21875 97.257812 Z M 215.878906 269.414062 L 218.191406 118.441406 C 219.347656 119.597656 221.273438 120.75 223.199219 121.90625 L 221.273438 242.453125 C 221.273438 243.609375 222.042969 244.378906 223.199219 244.378906 C 224.351562 244.378906 225.121094 243.609375 225.121094 242.453125 L 226.664062 123.832031 C 229.746094 125.371094 233.210938 126.527344 237.0625 127.296875 L 235.136719 247.847656 C 235.136719 249 235.90625 249.773438 237.0625 249.773438 C 238.21875 249.773438 238.988281 249 238.988281 247.847656 L 240.914062 128.070312 C 247.074219 129.609375 253.621094 130.378906 260.554688 131.148438 L 258.628906 250.542969 C 258.628906 251.699219 259.398438 252.46875 260.554688 252.46875 C 261.710938 252.46875 262.480469 251.699219 262.480469 250.542969 L 264.40625 131.148438 C 269.027344 131.535156 274.035156 131.535156 279.042969 131.535156 C 284.046875 131.535156 289.054688 131.148438 294.449219 130.765625 C 294.449219 130.765625 294.449219 131.148438 294.449219 131.148438 L 292.523438 252.46875 C 292.523438 253.621094 293.292969 254.394531 294.449219 254.394531 C 295.601562 254.394531 296.371094 253.621094 296.371094 252.46875 L 298.296875 131.148438 C 298.296875 130.765625 298.296875 130.765625 298.296875 130.378906 C 305.230469 129.609375 311.777344 128.839844 317.554688 127.296875 L 315.628906 248.617188 C 315.628906 249.773438 316.398438 250.542969 317.554688 250.542969 C 318.710938 250.542969 319.480469 249.773438 319.480469 248.617188 L 321.40625 127.296875 C 321.40625 126.914062 321.40625 126.914062 321.40625 126.527344 C 325.257812 125.371094 328.722656 124.21875 331.804688 123.0625 L 329.878906 242.839844 C 329.878906 243.996094 330.648438 244.765625 331.804688 244.765625 C 332.960938 244.765625 333.730469 243.996094 333.730469 242.839844 L 335.65625 121.523438 C 335.65625 121.523438 335.65625 121.136719 335.65625 121.136719 C 337.582031 119.980469 339.121094 118.824219 340.277344 117.671875 L 339.121094 248.230469 C 338.738281 248.617188 338.738281 249 338.738281 249.386719 C 338.738281 249.773438 337.96875 256.320312 333.347656 263.636719 L 333.347656 252.46875 C 333.347656 251.3125 332.574219 250.542969 331.421875 250.542969 C 330.265625 250.542969 329.496094 251.3125 329.496094 252.46875 L 329.496094 268.644531 C 326.796875 271.339844 323.332031 274.035156 319.097656 276.730469 L 319.097656 258.628906 C 319.097656 257.472656 318.324219 256.703125 317.171875 256.703125 C 316.015625 256.703125 315.246094 257.472656 315.246094 258.628906 L 314.859375 279.042969 C 313.703125 279.425781 312.546875 280.199219 311.394531 280.582031 C 306 282.507812 300.996094 284.046875 295.601562 284.820312 L 295.988281 262.867188 C 295.988281 261.710938 295.21875 260.941406 294.0625 260.941406 C 292.90625 260.941406 292.136719 261.710938 292.136719 262.867188 L 291.75 285.589844 C 280.96875 287.128906 270.953125 287.128906 262.097656 286.359375 L 262.480469 260.554688 C 262.480469 259.398438 261.710938 258.628906 260.554688 258.628906 C 259.398438 258.628906 258.628906 259.398438 258.628906 260.554688 L 258.246094 285.972656 C 250.542969 284.820312 243.609375 282.894531 238.601562 281.351562 L 238.988281 257.859375 C 238.988281 256.703125 238.21875 255.933594 237.0625 255.933594 C 235.90625 255.933594 235.136719 256.703125 235.136719 257.859375 L 234.75 279.425781 C 231.285156 278.273438 228.589844 277.117188 227.433594 276.347656 L 224.351562 274.421875 L 224.738281 251.699219 C 224.738281 250.542969 223.96875 249.773438 222.8125 249.773438 C 221.65625 249.773438 220.886719 250.542969 220.886719 251.699219 L 220.5 272.496094 L 215.878906 269.796875 C 215.878906 269.796875 215.878906 269.414062 215.878906 269.414062 Z M 224.351562 279.042969 C 224.738281 279.425781 225.121094 279.425781 225.894531 279.8125 L 226.277344 280.199219 C 225.507812 280.582031 225.121094 280.96875 224.351562 281.351562 Z M 185.453125 252.082031 L 182.371094 250.542969 C 188.148438 235.523438 186.609375 221.273438 178.136719 214.339844 C 178.90625 214.722656 179.675781 215.109375 180.449219 215.496094 C 190.074219 221.273438 192 235.90625 185.453125 252.082031 Z M 171.203125 244.378906 C 175.824219 232.441406 176.210938 222.425781 171.203125 214.722656 C 171.972656 215.109375 172.746094 215.109375 173.515625 215.878906 C 182.371094 221.273438 184.296875 234.367188 178.90625 248.617188 Z M 142.703125 227.820312 C 145.398438 225.121094 148.097656 222.8125 150.792969 220.886719 C 150.40625 224.351562 149.636719 227.433594 148.097656 230.898438 Z M 155.027344 218.191406 C 156.570312 217.421875 158.109375 216.265625 160.035156 215.878906 C 162.347656 222.042969 161.960938 228.589844 158.496094 237.0625 L 151.5625 233.210938 C 153.488281 227.433594 154.644531 223.199219 155.027344 218.191406 Z M 163.5 214.339844 C 164.273438 214.339844 164.65625 213.953125 165.425781 213.953125 C 165.8125 213.953125 165.8125 213.953125 166.199219 213.953125 C 173.898438 221.65625 171.589844 233.210938 168.121094 242.070312 L 161.960938 238.601562 C 165.8125 228.972656 166.199219 221.65625 163.5 214.339844 Z M 36.792969 216.265625 C 34.480469 206.636719 37.5625 194.699219 44.496094 183.914062 C 56.046875 166.582031 74.535156 158.109375 86.089844 164.65625 L 88.015625 165.8125 C 82.621094 166.199219 74.921875 167.351562 69.914062 171.972656 C 69.144531 172.746094 69.144531 173.898438 69.914062 174.671875 C 70.296875 175.054688 70.683594 175.441406 71.453125 175.441406 C 71.839844 175.441406 72.222656 175.441406 72.609375 175.054688 C 79.925781 168.121094 94.175781 170.046875 94.175781 170.046875 C 94.5625 170.046875 94.949219 170.046875 95.332031 169.664062 L 169.277344 209.332031 C 166.582031 209.71875 163.886719 210.101562 160.804688 211.257812 C 160.421875 211.257812 160.421875 211.257812 160.035156 211.257812 C 160.035156 211.257812 160.035156 211.257812 159.648438 211.257812 C 149.25 215.109375 138.46875 223.96875 130.378906 236.292969 C 122.292969 248.617188 118.441406 261.710938 119.597656 272.878906 C 119.597656 273.265625 119.597656 273.265625 119.597656 273.648438 C 119.597656 274.804688 119.980469 275.960938 119.980469 277.117188 C 120.367188 278.273438 120.75 279.8125 121.136719 280.96875 L 44.878906 228.203125 C 40.644531 225.894531 37.949219 221.65625 36.792969 216.265625 Z M 162.347656 273.648438 C 152.71875 282.507812 142.703125 285.972656 133.847656 282.507812 C 140.777344 281.738281 148.097656 277.5 155.796875 269.796875 Z M 127.296875 278.273438 C 126.914062 277.886719 126.527344 277.5 126.144531 277.117188 C 133.460938 275.191406 140.777344 269.027344 145.785156 264.023438 L 151.949219 267.871094 C 142.703125 276.347656 134.617188 279.8125 127.296875 278.273438 Z M 124.21875 273.648438 C 124.21875 273.265625 123.832031 273.265625 123.832031 272.878906 C 123.449219 270.953125 123.832031 268.644531 123.832031 266.71875 C 127.296875 264.792969 130.765625 262.480469 135 258.246094 C 135.386719 257.859375 135.386719 257.859375 135.386719 257.472656 L 142.703125 261.710938 C 135.773438 268.257812 129.222656 272.496094 124.21875 273.648438 Z M 124.601562 261.710938 C 124.988281 258.628906 126.144531 255.546875 127.296875 252.46875 L 132.304688 255.546875 C 129.222656 258.246094 126.914062 260.171875 124.601562 261.710938 Z M 132.304688 288.285156 C 130.378906 287.128906 128.453125 285.203125 127.296875 283.277344 C 127.683594 283.664062 128.070312 284.046875 128.453125 284.046875 C 132.304688 286.359375 136.15625 287.515625 140.777344 287.515625 C 148.867188 287.515625 157.722656 283.277344 165.8125 275.574219 L 168.894531 277.5 C 156.183594 289.441406 141.546875 293.675781 132.304688 288.285156 Z M 218.574219 302.921875 C 218.574219 302.535156 218.191406 302.535156 217.804688 302.535156 L 128.453125 248.617188 C 129.996094 245.148438 131.921875 241.683594 133.847656 238.601562 C 135.773438 235.90625 137.699219 233.210938 140.007812 230.515625 L 178.136719 252.46875 C 178.136719 252.851562 178.523438 252.851562 178.90625 252.851562 C 178.90625 252.851562 179.292969 252.851562 179.292969 252.851562 L 220.117188 276.347656 L 220.117188 283.277344 C 220.117188 283.277344 220.117188 283.664062 220.117188 283.664062 C 217.804688 285.972656 215.878906 289.824219 215.109375 294.832031 C 215.109375 295.988281 215.878906 296.757812 216.648438 296.757812 C 216.648438 296.757812 216.648438 296.757812 217.035156 296.757812 C 218.191406 296.757812 218.960938 295.988281 218.960938 295.21875 C 220.117188 284.046875 229.359375 282.507812 229.746094 282.507812 C 229.746094 282.507812 230.128906 282.507812 230.128906 282.507812 C 230.898438 283.277344 232.441406 284.433594 232.824219 286.746094 L 230.898438 285.972656 C 230.515625 285.972656 230.515625 285.972656 230.128906 285.972656 C 229.746094 285.972656 229.359375 285.972656 228.589844 286.359375 C 225.121094 288.671875 219.730469 293.292969 220.117188 297.914062 C 219.730469 298.683594 220.117188 299.453125 220.886719 300.222656 L 221.273438 300.222656 C 221.65625 300.609375 221.65625 300.609375 222.042969 300.996094 L 224.351562 302.921875 C 223.582031 303.304688 220.886719 304.074219 218.574219 302.921875 Z M 282.121094 310.238281 L 238.601562 289.441406 C 238.601562 289.441406 238.601562 289.441406 238.601562 289.054688 L 238.601562 284.820312 C 243.996094 286.359375 250.542969 288.285156 258.246094 289.441406 L 258.246094 292.136719 C 258.246094 293.292969 259.015625 294.0625 260.171875 294.0625 C 261.324219 294.0625 262.097656 293.292969 262.097656 292.136719 L 262.097656 289.824219 C 266.332031 290.210938 270.570312 290.597656 274.804688 290.597656 C 280.199219 290.597656 285.589844 290.210938 291.75 289.441406 L 291.75 294.832031 C 291.75 295.988281 292.523438 296.757812 293.675781 296.757812 C 294.832031 296.757812 295.601562 295.988281 295.601562 294.832031 L 295.601562 288.671875 C 300.996094 287.515625 306.773438 286.359375 312.546875 284.046875 C 313.320312 283.664062 314.089844 283.277344 314.859375 283.277344 L 314.859375 290.597656 C 314.859375 291.75 315.628906 292.523438 316.785156 292.523438 C 317.941406 292.523438 318.710938 291.75 318.710938 290.597656 L 318.710938 281.351562 C 322.949219 279.425781 326.414062 277.117188 329.109375 274.421875 L 329.109375 284.433594 C 329.109375 285.589844 329.878906 286.359375 331.035156 286.359375 C 332.191406 286.359375 332.960938 285.589844 332.960938 284.433594 L 332.960938 270.183594 C 335.65625 267.101562 337.199219 264.40625 338.738281 261.710938 L 338.351562 288.671875 C 338.351562 289.054688 338.351562 289.054688 338.351562 289.441406 C 338.351562 299.839844 317.171875 310.238281 282.121094 310.238281 Z M 282.121094 310.238281 " fill-opacity="1" fill-rule="nonzero"/></g><path fill="#000000" d="M 279.042969 54.894531 C 293.675781 54.894531 309.851562 51.8125 309.851562 45.265625 C 309.851562 38.71875 294.0625 35.636719 279.042969 35.636719 C 264.023438 35.636719 248.230469 38.71875 248.230469 45.265625 C 248.230469 51.8125 264.40625 54.894531 279.042969 54.894531 Z M 279.042969 39.101562 C 296.757812 39.101562 306 43.339844 306 44.878906 C 306 46.421875 296.757812 50.65625 279.042969 50.65625 C 261.324219 50.65625 252.082031 46.421875 252.082031 44.878906 C 252.082031 43.339844 261.324219 39.101562 279.042969 39.101562 Z M 279.042969 39.101562 " fill-opacity="1" fill-rule="nonzero"/><path fill="#000000" d="M 194.699219 280.582031 L 139.621094 248.230469 C 138.851562 247.847656 137.699219 247.847656 136.925781 249 C 136.542969 249.773438 136.542969 250.925781 137.699219 251.699219 L 192.773438 284.046875 C 193.15625 284.046875 193.542969 284.433594 193.925781 284.433594 C 194.699219 284.433594 195.082031 284.046875 195.46875 283.664062 C 195.851562 282.507812 195.46875 280.96875 194.699219 280.582031 Z M 194.699219 280.582031 " fill-opacity="1" fill-rule="nonzero"/><path fill="#000000" d="M 208.175781 288.671875 L 198.933594 283.277344 C 198.164062 282.894531 197.007812 282.894531 196.238281 284.046875 C 195.851562 284.820312 195.851562 285.972656 197.007812 286.746094 L 206.25 292.136719 C 206.636719 292.136719 207.023438 292.523438 207.40625 292.523438 C 208.175781 292.523438 208.5625 292.136719 208.949219 291.75 C 209.332031 290.210938 209.332031 289.054688 208.175781 288.671875 Z M 208.175781 288.671875 " fill-opacity="1" fill-rule="nonzero"/><path fill="#000000" d="M 272.878906 44.878906 C 280.582031 43.339844 293.675781 44.496094 293.675781 44.496094 C 294.832031 44.496094 295.601562 43.722656 295.601562 42.570312 C 295.601562 41.414062 294.832031 40.644531 294.0625 40.644531 C 293.675781 40.644531 280.582031 39.488281 272.496094 41.027344 C 271.339844 41.414062 270.953125 42.183594 270.953125 43.339844 C 270.953125 44.109375 271.722656 44.878906 272.878906 44.878906 Z M 272.878906 44.878906 " fill-opacity="1" fill-rule="nonzero"/><path fill="#000000" d="M 260.941406 46.804688 C 260.941406 46.804688 261.324219 46.804688 261.324219 46.804688 L 268.644531 45.265625 C 269.796875 44.878906 270.183594 44.109375 270.183594 42.953125 C 269.796875 41.796875 269.027344 41.414062 267.871094 41.414062 L 260.554688 42.953125 C 259.398438 43.339844 259.015625 44.109375 259.015625 45.265625 C 259.015625 46.035156 259.785156 46.804688 260.941406 46.804688 Z M 260.941406 46.804688 " fill-opacity="1" fill-rule="nonzero"/><path fill="#000000" d="M 287.898438 82.621094 C 288.285156 82.621094 288.285156 82.621094 287.898438 82.621094 C 300.609375 79.925781 312.164062 74.148438 312.933594 73.765625 C 313.703125 73.378906 314.089844 72.222656 313.703125 71.070312 C 313.320312 70.296875 312.164062 69.914062 311.007812 70.296875 C 311.007812 70.296875 299.453125 76.460938 287.515625 78.773438 C 286.359375 79.15625 285.972656 79.925781 285.972656 81.082031 C 286.359375 82.238281 287.128906 82.621094 287.898438 82.621094 Z M 287.898438 82.621094 " fill-opacity="1" fill-rule="nonzero"/><path fill="#000000" d="M 277.117188 84.164062 C 280.199219 83.777344 281.738281 83.394531 281.738281 83.394531 C 282.894531 83.394531 283.664062 82.238281 283.277344 81.082031 C 283.277344 79.925781 282.121094 79.15625 280.96875 79.542969 C 280.96875 79.542969 279.042969 79.925781 276.347656 80.3125 C 275.191406 80.699219 274.421875 81.46875 274.804688 82.621094 C 275.191406 83.777344 275.960938 84.164062 277.117188 84.164062 Z M 277.117188 84.164062 " fill-opacity="1" fill-rule="nonzero"/><path fill="#000000" d="M 287.898438 97.644531 C 288.285156 97.644531 288.285156 97.644531 287.898438 97.644531 C 300.609375 94.949219 312.164062 89.171875 312.933594 88.785156 C 313.703125 88.398438 314.089844 87.246094 313.703125 86.089844 C 313.320312 85.320312 312.164062 84.933594 311.007812 85.320312 C 311.007812 85.320312 299.453125 91.480469 287.515625 93.792969 C 286.359375 94.175781 285.972656 94.949219 285.972656 96.101562 C 286.359375 97.257812 287.128906 97.644531 287.898438 97.644531 Z M 287.898438 97.644531 " fill-opacity="1" fill-rule="nonzero"/><path fill="#000000" d="M 277.117188 99.183594 C 280.199219 98.796875 281.738281 98.414062 281.738281 98.414062 C 282.894531 98.414062 283.664062 97.257812 283.277344 96.101562 C 283.277344 94.949219 282.121094 94.175781 280.96875 94.5625 C 280.96875 94.5625 279.042969 94.949219 276.347656 95.332031 C 275.191406 95.71875 274.421875 96.488281 274.804688 97.644531 C 275.191406 98.796875 275.960938 99.183594 277.117188 99.183594 Z M 277.117188 99.183594 " fill-opacity="1" fill-rule="nonzero"/><path fill="#000000" d="M 287.898438 111.507812 C 288.285156 111.507812 288.285156 111.507812 287.898438 111.507812 C 300.609375 108.8125 312.164062 103.035156 312.933594 102.648438 C 313.703125 102.265625 314.089844 101.109375 313.703125 99.953125 C 313.320312 99.183594 312.164062 98.796875 311.007812 99.183594 C 311.007812 99.183594 299.453125 105.347656 287.515625 107.65625 C 286.359375 108.042969 285.972656 108.8125 285.972656 109.96875 C 286.359375 111.121094 287.128906 111.507812 287.898438 111.507812 Z M 287.898438 111.507812 " fill-opacity="1" fill-rule="nonzero"/><path fill="#000000" d="M 277.117188 113.046875 C 280.199219 112.664062 281.738281 112.277344 281.738281 112.277344 C 282.894531 112.277344 283.664062 111.121094 283.277344 109.96875 C 283.277344 108.8125 282.121094 108.042969 280.96875 108.425781 C 280.96875 108.425781 279.042969 108.8125 276.347656 109.199219 C 275.191406 109.582031 274.421875 110.351562 274.804688 111.507812 C 275.191406 112.277344 275.960938 113.046875 277.117188 113.046875 Z M 277.117188 113.046875 " fill-opacity="1" fill-rule="nonzero"/><path fill="#000000" d="M 275.574219 68.757812 C 275.960938 68.757812 275.960938 68.757812 275.574219 68.757812 C 276.347656 68.757812 291.367188 67.988281 297.914062 65.292969 C 299.070312 64.90625 299.453125 63.75 299.070312 62.597656 C 298.683594 61.441406 297.527344 61.054688 296.371094 61.441406 C 290.597656 63.75 275.574219 64.523438 275.574219 64.523438 C 274.421875 64.523438 273.648438 65.292969 273.648438 66.449219 C 274.035156 67.988281 274.804688 68.757812 275.574219 68.757812 Z M 275.574219 68.757812 " fill-opacity="1" fill-rule="nonzero"/><path fill="#000000" d="M 302.921875 64.523438 C 303.304688 64.523438 303.304688 64.523438 303.691406 64.523438 L 309.851562 62.210938 C 311.007812 61.824219 311.394531 60.671875 311.007812 59.898438 C 310.621094 59.128906 309.46875 58.359375 308.699219 58.746094 L 302.535156 61.054688 C 301.378906 61.441406 300.996094 62.597656 301.378906 63.367188 C 301.378906 64.136719 302.148438 64.523438 302.921875 64.523438 Z M 302.921875 64.523438 " fill-opacity="1" fill-rule="nonzero"/><path fill="#000000" d="M 74.921875 239.757812 C 74.148438 238.988281 72.996094 239.371094 72.222656 240.144531 C 71.453125 240.914062 71.839844 242.070312 72.609375 242.839844 L 99.183594 260.554688 C 99.570312 260.941406 99.953125 260.941406 100.339844 260.941406 C 101.109375 260.941406 101.496094 260.554688 101.878906 260.171875 C 102.648438 259.398438 102.265625 258.246094 101.496094 257.472656 Z M 74.921875 239.757812 " fill-opacity="1" fill-rule="nonzero"/><path fill="#000000" d="M 107.65625 261.710938 C 106.886719 260.941406 105.730469 261.324219 104.960938 262.097656 C 104.191406 262.867188 104.574219 264.023438 105.347656 264.792969 L 112.664062 269.796875 C 113.046875 270.183594 113.433594 270.183594 113.820312 270.183594 C 114.589844 270.183594 114.972656 269.796875 115.359375 269.414062 C 116.128906 268.644531 115.746094 267.488281 114.972656 266.71875 Z M 107.65625 261.710938 " fill-opacity="1" fill-rule="nonzero"/><path fill="#000000" d="M 109.199219 185.839844 L 137.3125 201.628906 C 137.699219 201.628906 138.082031 202.015625 138.082031 202.015625 C 138.851562 202.015625 139.238281 201.628906 139.621094 200.859375 C 140.007812 200.089844 140.007812 198.933594 138.851562 198.164062 L 111.121094 182.757812 C 110.351562 182.371094 109.199219 182.371094 108.425781 183.527344 C 108.042969 184.296875 108.425781 185.453125 109.199219 185.839844 Z M 109.199219 185.839844 " fill-opacity="1" fill-rule="nonzero"/><path fill="#000000" d="M 143.472656 205.480469 L 151.175781 209.71875 C 151.5625 209.71875 151.949219 210.101562 151.949219 210.101562 C 152.71875 210.101562 153.101562 209.71875 153.488281 208.949219 C 153.871094 208.175781 153.871094 207.023438 152.71875 206.25 L 145.015625 202.015625 C 144.246094 201.628906 143.089844 201.628906 142.320312 202.785156 C 142.320312 203.554688 142.703125 205.097656 143.472656 205.480469 Z M 143.472656 205.480469 " fill-opacity="1" fill-rule="nonzero"/><path fill="#000000" d="M 104.960938 247.074219 L 62.597656 220.5 C 61.824219 220.117188 60.671875 220.117188 59.898438 221.273438 C 59.515625 222.042969 59.515625 223.199219 60.671875 223.96875 L 103.035156 250.542969 C 103.421875 250.925781 103.804688 250.925781 104.191406 250.925781 C 104.960938 250.925781 105.347656 250.542969 105.730469 250.15625 C 106.117188 249 105.730469 247.847656 104.960938 247.074219 Z M 104.960938 247.074219 " fill-opacity="1" fill-rule="nonzero"/><path fill="#000000" d="M 111.894531 250.542969 C 111.121094 249.773438 109.96875 250.15625 109.199219 250.925781 C 108.425781 251.699219 108.8125 252.851562 109.582031 253.621094 L 114.589844 257.472656 C 114.972656 257.859375 115.359375 257.859375 115.746094 257.859375 C 116.515625 257.859375 116.898438 257.472656 117.285156 257.089844 C 118.054688 256.320312 117.671875 255.164062 116.898438 254.394531 Z M 111.894531 250.542969 " fill-opacity="1" fill-rule="nonzero"/><path fill="#000000" d="M 86.859375 184.296875 L 130.378906 208.949219 C 130.765625 208.949219 131.148438 209.332031 131.148438 209.332031 C 131.921875 209.332031 132.304688 208.949219 132.691406 208.175781 C 133.074219 207.40625 132.691406 206.25 131.921875 205.480469 L 88.398438 181.21875 C 87.628906 180.832031 86.472656 180.832031 85.703125 181.988281 C 85.703125 182.757812 86.089844 183.914062 86.859375 184.296875 Z M 86.859375 184.296875 " fill-opacity="1" fill-rule="nonzero"/><path fill="#000000" d="M 144.628906 211.644531 L 139.238281 208.175781 C 138.46875 207.792969 137.3125 207.792969 136.542969 208.5625 C 136.15625 209.332031 136.15625 210.488281 136.925781 211.257812 L 142.320312 214.722656 C 142.703125 215.109375 143.089844 215.109375 143.472656 215.109375 C 144.246094 215.109375 144.628906 214.722656 145.015625 214.339844 C 145.785156 213.570312 145.785156 212.414062 144.628906 211.644531 Z M 144.628906 211.644531 " fill-opacity="1" fill-rule="nonzero"/><path fill="#000000" d="M 71.453125 190.460938 L 118.054688 219.730469 C 118.441406 220.117188 118.824219 220.117188 119.210938 220.117188 C 119.980469 220.117188 120.367188 219.730469 120.75 219.347656 C 121.136719 218.574219 121.136719 217.421875 119.980469 216.648438 L 73.378906 187.378906 C 72.609375 186.996094 71.453125 186.996094 70.683594 188.148438 C 70.296875 188.535156 70.683594 190.074219 71.453125 190.460938 Z M 71.453125 190.460938 " fill-opacity="1" fill-rule="nonzero"/><path fill="#000000" d="M 132.304688 222.8125 L 126.914062 219.347656 C 126.144531 218.960938 124.988281 218.960938 124.21875 219.730469 C 123.832031 220.5 123.832031 221.65625 124.601562 222.425781 L 129.996094 225.894531 C 130.378906 226.277344 130.765625 226.277344 131.148438 226.277344 C 131.921875 226.277344 132.304688 225.894531 132.691406 225.507812 C 133.460938 224.351562 133.460938 223.199219 132.304688 222.8125 Z M 132.304688 222.8125 " fill-opacity="1" fill-rule="nonzero"/><path fill="#000000" d="M 60.671875 206.636719 C 60.285156 207.40625 60.285156 208.5625 61.441406 209.332031 L 108.042969 238.601562 C 108.425781 238.988281 108.8125 238.988281 109.199219 238.988281 C 109.96875 238.988281 110.351562 238.601562 110.738281 238.21875 C 111.121094 237.449219 111.121094 236.292969 109.96875 235.523438 L 63.367188 206.25 C 62.597656 205.480469 61.441406 205.867188 60.671875 206.636719 Z M 60.671875 206.636719 " fill-opacity="1" fill-rule="nonzero"/><path fill="#000000" d="M 122.292969 241.296875 L 116.898438 237.832031 C 116.128906 237.449219 114.972656 237.449219 114.203125 238.21875 C 113.820312 238.988281 113.820312 240.144531 114.589844 240.914062 L 119.980469 244.378906 C 120.367188 244.765625 120.75 244.765625 121.136719 244.765625 C 121.90625 244.765625 122.292969 244.378906 122.675781 243.996094 C 123.449219 243.222656 123.449219 242.070312 122.292969 241.296875 Z M 122.292969 241.296875 " fill-opacity="1" fill-rule="nonzero"/><path fill="#000000" d="M 59.128906 185.839844 C 59.515625 185.839844 59.898438 186.222656 60.285156 186.222656 C 61.054688 186.222656 61.441406 185.839844 61.824219 185.453125 C 62.597656 184.296875 65.675781 181.21875 67.988281 178.90625 C 68.757812 178.136719 68.757812 176.980469 67.988281 176.210938 C 67.21875 175.441406 66.0625 175.441406 65.292969 176.210938 C 64.136719 176.980469 59.515625 181.601562 58.359375 183.527344 C 57.972656 184.296875 58.359375 185.453125 59.128906 185.839844 Z M 59.128906 185.839844 " fill-opacity="1" fill-rule="nonzero"/></svg>