<svg xmlns="http://www.w3.org/2000/svg" xmlns:xlink="http://www.w3.org/1999/xlink" width="500" zoomAndPan="magnify" viewBox="0 0 375 374.999991" height="500" preserveAspectRatio="xMidYMid meet" version="1.0"><defs><clipPath id="1f88dc5142"><path d="M 0 78.046875 L 373 78.046875 L 373 297.046875 L 0 297.046875 Z M 0 78.046875 " clip-rule="nonzero"/></clipPath></defs><g clip-path="url(#1f88dc5142)"><path fill="#000000" d="M 370.15625 152.148438 C 365.78125 147.109375 360.328125 153.140625 356.449219 156.195312 C 347.117188 163.382812 337.289062 169.828125 327.710938 176.765625 C 321.765625 181.0625 315.902344 185.441406 310.042969 189.902344 C 306.984375 192.214844 303.847656 194.195312 300.628906 196.261719 C 298.480469 197.585938 295.09375 198.65625 294.929688 201.300781 C 294.765625 204.027344 298.066406 208.40625 299.71875 210.304688 C 302.113281 212.949219 302.363281 212.371094 300.132812 215.097656 C 295.839844 220.382812 290.386719 224.679688 285.597656 229.554688 C 280.5625 234.757812 276.101562 240.457031 270.570312 245.167969 C 267.761719 247.5625 264.789062 249.710938 261.816406 251.777344 C 259.175781 253.511719 255.542969 254.914062 253.3125 257.144531 C 252.488281 257.972656 251.164062 259.707031 251.246094 260.945312 C 251.414062 263.011719 252.570312 262.433594 253.890625 263.34375 C 255.210938 264.332031 256.285156 266.480469 257.605469 267.222656 C 258.515625 267.804688 259.503906 267.390625 260.332031 267.804688 C 261.488281 268.464844 261.652344 270.28125 262.5625 271.191406 C 264.625 273.253906 266.6875 272.015625 267.929688 269.621094 C 270.902344 264.167969 272.550781 257.808594 275.523438 252.273438 C 278.582031 246.65625 283.863281 242.195312 288.078125 237.484375 C 294.1875 230.628906 300.460938 224.019531 306.574219 217.246094 C 309.957031 219.394531 312.929688 222.285156 316.316406 224.265625 C 319.042969 225.835938 322.34375 226.746094 324.738281 224.515625 C 327.546875 221.871094 328.539062 218.152344 330.519531 214.933594 C 332.667969 211.460938 334.980469 207.992188 337.289062 204.523438 C 346.375 190.808594 358.347656 179.078125 367.84375 165.613281 C 371.3125 160.738281 374.613281 157.269531 370.15625 152.148438 Z M 272.140625 255.660156 C 271.3125 255.246094 274.203125 250.621094 273.542969 250.207031 C 270.238281 254.253906 268.339844 260.699219 266.113281 265.40625 C 268.339844 262.679688 270.15625 259.542969 271.726562 256.402344 C 271.5625 259.128906 269.496094 261.773438 268.507812 264.332031 C 268.011719 265.65625 267.019531 270.527344 265.285156 270.777344 C 263.386719 271.105469 262.394531 266.976562 260.992188 266.316406 C 260.414062 265.984375 259.421875 266.234375 258.761719 265.902344 C 258.433594 265.738281 257.605469 264.664062 257.359375 264.332031 C 256.53125 263.425781 255.953125 262.597656 254.964844 261.9375 C 254.304688 261.523438 253.394531 261.855469 252.980469 261.027344 C 252.15625 259.292969 255.625 256.980469 256.78125 256.238281 C 261.488281 253.261719 265.945312 249.957031 270.488281 246.820312 C 271.808594 248.140625 273.210938 249.378906 275.277344 249.546875 C 274.285156 251.609375 273.296875 253.675781 272.140625 255.660156 Z M 304.011719 218.070312 C 301.535156 221.457031 298.066406 224.433594 295.175781 227.570312 C 289.480469 233.765625 283.949219 240.210938 278.085938 246.160156 C 277.425781 246.820312 276.101562 248.140625 276.101562 248.140625 L 271.726562 245.992188 C 271.726562 245.992188 273.046875 244.835938 273.296875 244.507812 C 275.855469 240.953125 280.066406 237.320312 282.792969 234.429688 C 289.398438 227.488281 296.417969 220.796875 303.023438 213.859375 C 305.335938 215.261719 305.335938 216.253906 304.011719 218.070312 Z M 360.660156 173.132812 C 355.621094 179.65625 350.585938 186.265625 345.21875 192.460938 C 340.179688 198.328125 335.96875 204.277344 331.757812 210.71875 C 329.695312 213.941406 327.960938 217.164062 326.0625 220.46875 C 324.410156 223.277344 323.335938 225.09375 319.867188 224.183594 C 316.480469 223.277344 313.921875 220.382812 311.03125 218.484375 C 309.050781 217.164062 307.480469 215.839844 305.746094 214.1875 C 304.097656 212.617188 302.363281 211.132812 300.875 209.480469 C 298.398438 206.753906 297.574219 203.863281 296.167969 200.558594 C 310.207031 191.222656 323.335938 180.8125 337.289062 171.398438 C 344.0625 166.851562 351.082031 162.558594 357.191406 157.1875 C 361.238281 153.636719 366.933594 147.6875 370.320312 155.289062 C 372.714844 160.65625 363.714844 169.25 360.660156 173.132812 Z M 366.441406 159.335938 C 360.082031 167.761719 352.070312 174.867188 345.300781 183.042969 C 338.941406 190.726562 333.164062 199.070312 327.050781 207 C 326.804688 204.191406 331.839844 198.742188 333.328125 196.59375 C 336.382812 192.214844 339.933594 188 343.320312 183.789062 C 347.777344 178.253906 352.816406 173.296875 357.605469 168.007812 C 358.84375 166.6875 364.210938 158.921875 366.441406 159.335938 Z M 329.941406 183.210938 C 325.234375 187.011719 320.609375 190.976562 315.738281 194.691406 C 314.003906 196.015625 308.140625 201.878906 305.5 201.382812 C 305.25 201.054688 312.4375 195.683594 313.097656 195.1875 C 318.214844 191.386719 323.832031 185.273438 329.941406 183.210938 Z M 322.839844 213.363281 C 323.667969 213.691406 317.96875 220.136719 317.554688 220.382812 C 317.226562 220.136719 318.710938 217.824219 318.960938 217.574219 C 319.207031 217.164062 322.261719 213.113281 322.839844 213.363281 Z M 265.367188 253.839844 C 265.617188 253.59375 270.902344 248.800781 271.394531 249.050781 C 271.148438 248.886719 264.542969 255.824219 263.800781 256.402344 C 263.632812 256.484375 259.339844 260.53125 259.257812 260.449219 C 257.769531 259.789062 265.121094 254.089844 265.367188 253.839844 Z M 271.394531 251.609375 C 271.230469 251.609375 267.929688 257.3125 267.433594 257.890625 C 265.945312 259.707031 264.210938 261.195312 262.726562 262.929688 C 262.3125 261.277344 269.496094 251.445312 271.394531 251.609375 Z M 229.613281 272.265625 C 227.714844 270.199219 225.730469 268.296875 223.667969 266.398438 C 222.757812 265.574219 221.769531 264.828125 220.859375 264.167969 C 219.621094 262.183594 218.382812 260.039062 217.886719 257.476562 C 216.898438 252.1875 213.757812 247.316406 211.777344 242.195312 C 210.042969 237.648438 207.566406 233.4375 204.839844 229.472656 C 203.4375 227.324219 201.867188 225.257812 200.464844 223.109375 C 196.335938 216.667969 192.289062 210.222656 188.242188 203.78125 C 187.417969 202.457031 186.425781 201.136719 185.519531 199.816406 C 186.507812 199.898438 187.253906 200.144531 187.832031 200.640625 C 192.042969 203.78125 196.335938 206.917969 200.464844 210.222656 C 203.683594 212.703125 207.152344 214.355469 211.199219 214.933594 C 212.519531 215.097656 213.675781 214.847656 214.503906 213.941406 C 215.328125 214.4375 216.070312 214.933594 216.898438 215.34375 C 218.136719 216.007812 219.621094 216.5 220.613281 215.921875 C 221.519531 215.34375 221.519531 213.859375 220.941406 212.617188 C 220.363281 211.296875 219.375 210.222656 218.300781 209.148438 C 216.898438 207.664062 215.492188 206.339844 214.007812 204.9375 C 213.429688 204.027344 212.769531 203.203125 211.777344 202.457031 C 210.375 201.300781 208.722656 200.308594 207.316406 199.152344 C 205.335938 197.417969 203.519531 195.4375 201.457031 193.785156 C 198.234375 191.222656 194.847656 188.828125 191.546875 186.429688 C 185.683594 182.21875 179.902344 178.003906 174.039062 173.792969 C 168.839844 169.992188 163.636719 166.191406 158.433594 162.476562 C 152.734375 158.34375 147.203125 153.800781 141.09375 150.332031 C 132.585938 145.539062 123.585938 141.738281 114.917969 137.277344 C 110.953125 135.296875 107.238281 132.898438 103.355469 130.667969 C 97.246094 127.199219 91.136719 123.648438 85.023438 120.261719 C 82.132812 118.609375 66.113281 109.933594 63.058594 108.695312 C 57.277344 106.300781 51.417969 104.070312 45.554688 101.671875 C 39.277344 99.195312 33.003906 97.128906 26.066406 97.378906 C 22.101562 97.542969 18.054688 96.800781 14.09375 96.550781 C 11.53125 96.386719 8.972656 96.304688 6.414062 96.222656 C 4.679688 96.136719 3.027344 96.222656 1.292969 96.222656 C 1.210938 96.386719 1.210938 96.632812 1.128906 96.800781 C 1.789062 97.046875 2.449219 97.460938 3.191406 97.542969 C 4.101562 97.625 5.007812 97.378906 5.835938 97.542969 C 10.707031 98.039062 15.496094 98.863281 20.367188 99.195312 C 26.972656 99.691406 33.664062 99.441406 40.019531 101.921875 C 43.078125 103.160156 46.132812 104.316406 49.1875 105.472656 C 52.40625 106.796875 55.710938 108.117188 58.929688 109.519531 C 62.234375 110.925781 65.453125 112.332031 68.59375 113.980469 C 71.976562 115.71875 75.117188 117.949219 78.5 119.683594 C 81.886719 121.417969 85.601562 122.574219 88.988281 124.472656 C 94.4375 127.449219 99.640625 130.835938 105.007812 133.972656 C 109.550781 136.617188 114.089844 139.34375 118.714844 141.738281 C 121.273438 143.0625 124.082031 143.722656 126.640625 144.960938 C 131.347656 147.273438 135.972656 149.671875 140.597656 152.230469 C 142.828125 153.46875 145.054688 154.792969 147.121094 156.277344 C 150.011719 158.34375 152.734375 160.574219 155.542969 162.722656 C 161.820312 167.347656 168.09375 171.976562 174.371094 176.519531 C 181.058594 181.308594 187.832031 185.9375 194.519531 190.808594 C 197.328125 192.875 199.804688 195.1875 202.527344 197.417969 C 203.273438 197.996094 203.933594 198.574219 204.675781 199.152344 C 202.609375 198.824219 200.878906 200.308594 202.03125 202.871094 C 202.609375 204.027344 203.601562 205.019531 204.59375 205.925781 C 207.152344 208.324219 209.796875 210.71875 212.601562 212.703125 C 212.191406 213.113281 211.613281 213.113281 210.703125 213.03125 C 206.90625 212.371094 203.601562 210.472656 200.878906 207.992188 C 196.417969 203.945312 191.382812 200.886719 186.425781 197.667969 C 183.949219 196.097656 180.894531 195.519531 179.078125 192.957031 C 178.417969 192.132812 177.671875 191.304688 176.847656 190.644531 C 172.96875 187.421875 169.003906 184.285156 165.121094 181.0625 C 161.738281 178.253906 158.433594 175.195312 155.128906 172.386719 C 154.882812 172.140625 154.304688 172.140625 153.890625 172.058594 C 153.890625 172.554688 153.808594 173.046875 153.890625 173.542969 C 153.890625 173.792969 154.222656 174.039062 154.46875 174.289062 C 158.101562 177.507812 161.738281 180.730469 165.371094 183.871094 C 168.507812 186.597656 171.644531 189.15625 174.785156 191.882812 C 179.40625 195.933594 183.535156 200.394531 186.839844 205.597656 C 189.894531 210.304688 192.867188 215.097656 195.921875 219.804688 C 197.90625 222.863281 199.804688 226.003906 201.785156 229.058594 C 203.851562 232.363281 206.328125 235.503906 207.980469 238.890625 C 210.621094 244.257812 212.851562 249.792969 215.164062 255.328125 C 215.492188 256.15625 215.65625 257.144531 215.90625 257.972656 C 214.171875 256.648438 212.851562 255.328125 211.53125 253.839844 C 208.722656 250.621094 205.996094 247.316406 203.273438 244.09375 C 198.234375 238.3125 193.363281 232.527344 188.160156 226.910156 C 184.859375 223.359375 181.140625 220.136719 177.589844 216.75 C 175.855469 215.097656 173.792969 213.527344 172.304688 211.710938 C 170.820312 209.894531 169.828125 207.664062 168.507812 205.597656 C 164.957031 200.144531 161.488281 194.691406 157.691406 189.40625 C 154.800781 185.359375 151.496094 181.640625 148.359375 177.757812 C 147.039062 176.105469 145.882812 174.371094 144.476562 172.800781 C 144.148438 172.386719 143.40625 172.304688 142.828125 172.140625 C 142.910156 172.636719 142.746094 173.378906 142.992188 173.710938 C 145.222656 176.601562 147.449219 179.492188 149.679688 182.300781 C 151.664062 184.78125 153.726562 187.09375 155.542969 189.570312 C 157.855469 192.792969 160.085938 196.015625 162.230469 199.320312 C 163.964844 201.960938 165.535156 204.6875 167.1875 207.332031 C 167.019531 207.496094 166.773438 207.746094 166.609375 207.910156 C 153.480469 196.511719 139.6875 185.9375 127.136719 173.875 C 126.972656 173.957031 126.808594 174.121094 126.640625 174.207031 C 126.890625 174.867188 127.136719 175.609375 127.46875 176.1875 C 130.027344 180.320312 134.238281 182.714844 137.707031 185.9375 C 141.011719 188.910156 144.5625 191.554688 147.945312 194.445312 C 155.542969 200.804688 163.140625 207.25 170.738281 213.609375 C 173.050781 215.511719 175.609375 217.246094 177.757812 219.308594 C 180.5625 221.953125 183.207031 224.84375 185.847656 227.652344 C 188.988281 230.957031 192.042969 234.34375 195.097656 237.734375 C 200.050781 243.433594 204.839844 249.296875 209.960938 254.914062 C 212.105469 257.230469 214.417969 259.542969 216.402344 261.9375 C 215.824219 261.773438 215.246094 261.523438 214.667969 261.441406 C 212.273438 260.945312 210.125 262.761719 211.445312 265.65625 C 212.023438 266.976562 213.179688 268.050781 214.253906 269.042969 C 216.648438 271.191406 219.042969 273.421875 221.519531 275.402344 C 220.859375 276.394531 219.621094 276.726562 218.136719 276.144531 C 215.164062 274.988281 212.105469 273.75 209.464844 272.015625 C 204.261719 268.464844 199.144531 264.746094 194.4375 260.617188 C 189.648438 256.402344 185.351562 251.777344 180.976562 247.148438 C 176.601562 242.523438 173.296875 236.988281 168.507812 232.609375 C 163.800781 228.316406 158.597656 224.84375 153.148438 221.707031 C 147.285156 218.320312 141.339844 215.097656 135.476562 211.628906 C 131.101562 209.066406 127.054688 206.09375 122.679688 203.613281 C 119.375 201.714844 115.742188 200.226562 112.273438 198.65625 C 108.226562 196.839844 104.183594 195.1875 100.136719 193.207031 C 95.925781 191.140625 91.628906 189.242188 86.839844 189.242188 C 84.28125 189.242188 81.886719 190.726562 81.640625 193.207031 C 81.226562 197.667969 81.144531 202.128906 83.703125 206.011719 C 84.941406 207.992188 86.429688 209.808594 87.914062 211.628906 C 90.308594 214.519531 92.539062 217.742188 95.347656 220.21875 C 99.886719 224.265625 104.761719 228.148438 109.796875 231.703125 C 113.84375 234.511719 118.054688 236.90625 121.769531 240.210938 C 124.742188 242.855469 127.136719 245.582031 128.210938 249.296875 C 127.632812 248.800781 127.054688 248.222656 126.476562 247.726562 C 124.082031 245.746094 121.6875 244.425781 118.714844 244.339844 C 116.484375 244.257812 114.257812 246.570312 115.246094 249.296875 C 115.328125 249.546875 115.496094 249.792969 115.578125 250.042969 C 114.171875 249.214844 112.769531 248.308594 111.449219 247.398438 C 109.878906 246.242188 108.144531 245.167969 106.410156 244.257812 C 102.117188 241.945312 97.824219 239.796875 93.53125 237.484375 C 89.566406 235.335938 85.601562 233.105469 81.640625 230.792969 C 76.933594 228.066406 72.058594 225.507812 67.519531 222.53125 C 61.902344 218.898438 58.1875 213.691406 56.039062 207.332031 C 53.8125 200.804688 50.839844 194.691406 47.617188 188.660156 C 45.472656 184.695312 43.324219 180.8125 40.929688 177.015625 C 38.699219 173.542969 36.140625 170.15625 33.496094 166.9375 C 32.011719 165.035156 29.945312 163.464844 28.378906 161.566406 C 24.746094 157.269531 20.367188 154.296875 14.917969 152.726562 C 13.101562 152.230469 11.449219 151.320312 9.714844 150.828125 C 7.074219 150.082031 4.347656 149.503906 1.707031 148.925781 C 1.375 148.84375 0.878906 149.339844 0.386719 149.585938 C 0.632812 149.917969 0.796875 150.496094 1.128906 150.660156 C 3.769531 151.570312 6.496094 152.394531 9.136719 153.304688 C 12.6875 154.625 16.320312 155.867188 19.789062 157.351562 C 24 159.085938 26.394531 162.886719 29.535156 165.945312 C 34.324219 170.652344 37.875 176.4375 41.589844 182.054688 C 43.902344 185.605469 46.132812 189.324219 47.867188 193.121094 C 50.425781 198.574219 52.40625 204.277344 54.800781 209.808594 C 55.957031 212.535156 57.113281 215.59375 59.097656 217.660156 C 62.234375 220.960938 65.867188 223.769531 69.582031 226.25 C 73.132812 228.644531 77.097656 230.378906 80.894531 232.445312 C 85.683594 235.089844 90.472656 237.816406 95.347656 240.457031 C 99.640625 242.773438 104.097656 244.835938 108.3125 247.234375 C 111.367188 248.96875 114.089844 251.28125 117.230469 252.933594 C 118.21875 253.429688 119.292969 253.925781 120.367188 254.335938 C 123.175781 256.648438 126.148438 258.796875 129.449219 259.953125 C 130.6875 260.367188 132.257812 260.617188 133.332031 259.789062 C 134.402344 258.878906 134.570312 257.230469 134.15625 255.824219 C 133.742188 254.503906 132.753906 253.429688 131.761719 252.4375 C 131.429688 252.105469 131.101562 251.777344 130.769531 251.445312 C 130.6875 249.132812 130.027344 246.820312 128.789062 244.917969 C 126.148438 240.789062 122.347656 237.816406 118.550781 234.921875 C 113.925781 231.371094 108.972656 228.148438 104.183594 224.761719 C 102.035156 223.191406 99.722656 221.789062 97.988281 219.972656 C 94.355469 216.171875 91.136719 212.039062 87.585938 208.074219 C 83.949219 204.027344 83.042969 199.320312 83.867188 194.195312 C 84.117188 192.710938 84.777344 191.472656 86.59375 191.71875 C 89.566406 192.132812 92.785156 192.132812 95.511719 193.207031 C 100.382812 195.105469 105.089844 197.667969 109.878906 199.898438 C 115.246094 202.375 120.695312 204.523438 125.652344 207.910156 C 129.449219 210.472656 133.496094 212.703125 137.460938 215.097656 C 140.679688 216.996094 143.816406 218.898438 147.039062 220.714844 C 149.019531 221.871094 151.496094 222.699219 152.984375 224.351562 C 155.296875 226.828125 157.03125 229.882812 158.847656 232.859375 C 160.664062 235.667969 162.148438 238.722656 163.882812 241.617188 C 166.195312 245.332031 168.753906 248.886719 170.902344 252.683594 C 172.882812 256.238281 174.535156 260.039062 176.351562 263.753906 C 178.417969 268.132812 180.234375 272.675781 182.546875 276.972656 C 184.527344 280.691406 186.839844 284.324219 189.398438 287.710938 C 190.390625 289.035156 192.289062 289.859375 193.941406 290.601562 C 194.519531 291.925781 195.097656 293.164062 195.757812 294.320312 C 196.582031 295.640625 197.574219 297.046875 198.894531 297.046875 C 200.132812 297.046875 201.125 295.726562 201.371094 294.15625 C 201.703125 292.585938 201.457031 290.933594 201.125 289.363281 C 200.628906 286.636719 200.050781 283.910156 199.390625 281.1875 C 198.730469 278.625 197.90625 276.394531 196.582031 274.492188 C 196.582031 274.492188 196.582031 274.410156 196.582031 274.410156 C 195.097656 270.28125 193.691406 266.152344 192.289062 262.019531 C 195.425781 263.921875 198.398438 265.902344 201.042969 268.132812 C 206.410156 272.59375 211.859375 276.890625 218.796875 278.542969 C 220.859375 279.039062 223.089844 278.460938 223.585938 276.972656 C 224.90625 277.882812 226.226562 278.707031 227.632812 279.367188 C 229.035156 280.027344 230.6875 280.605469 231.675781 279.945312 C 232.75 279.285156 232.75 277.632812 232.171875 276.144531 C 231.84375 274.742188 230.6875 273.421875 229.613281 272.265625 Z M 194.269531 271.769531 C 192.535156 270.777344 190.472656 271.355469 189.976562 274.082031 C 189.730469 275.484375 190.058594 276.972656 190.472656 278.460938 C 191.214844 281.515625 191.960938 284.574219 192.949219 287.546875 C 191.792969 286.886719 190.71875 286.140625 190.058594 285.234375 C 187.664062 281.765625 185.4375 278.128906 183.535156 274.328125 C 180.152344 267.636719 177.34375 260.699219 173.792969 254.171875 C 170.078125 247.316406 165.699219 240.871094 161.738281 234.179688 C 160.414062 231.949219 159.257812 229.636719 158.019531 227.324219 C 158.269531 227.160156 158.433594 226.910156 158.679688 226.746094 C 161.488281 229.140625 164.214844 231.535156 167.019531 233.851562 C 168.175781 234.839844 169.582031 235.585938 170.488281 236.660156 C 174.289062 241.121094 177.921875 245.828125 181.636719 250.289062 C 183.785156 252.851562 186.011719 255.410156 188.492188 257.640625 C 190.308594 259.292969 190.058594 261.441406 190.804688 263.34375 C 192.042969 266.152344 193.199219 268.960938 194.269531 271.769531 Z M 256.449219 150.164062 C 259.011719 150.164062 264.210938 142.566406 264.210938 138.847656 C 264.210938 142.648438 269.332031 150.164062 271.972656 150.164062 C 269.414062 150.164062 264.210938 157.765625 264.210938 161.484375 C 264.210938 157.765625 259.011719 150.164062 256.449219 150.164062 Z M 236.136719 95.3125 C 232.253906 95.3125 224.410156 106.796875 224.410156 112.578125 C 224.410156 106.796875 216.566406 95.3125 212.683594 95.3125 C 216.566406 95.3125 224.410156 83.828125 224.410156 78.046875 C 224.410156 83.828125 232.253906 95.3125 236.136719 95.3125 Z M 236.136719 95.3125 " fill-opacity="1" fill-rule="nonzero"/></g></svg>