<svg xmlns="http://www.w3.org/2000/svg" xmlns:xlink="http://www.w3.org/1999/xlink" width="500" zoomAndPan="magnify" viewBox="0 0 375 374.999991" height="500" preserveAspectRatio="xMidYMid meet" version="1.0"><defs><clipPath id="8e6a9f40cc"><path d="M 41.742188 18.75 L 333.492188 18.75 L 333.492188 356.25 L 41.742188 356.25 Z M 41.742188 18.75 " clip-rule="nonzero"/></clipPath></defs><g clip-path="url(#8e6a9f40cc)"><path fill="#000000" d="M 186.71875 165.472656 Z M 187.867188 164.613281 C 187.796875 164.613281 187.796875 164.613281 187.867188 164.613281 C 187.796875 164.613281 187.796875 164.613281 187.867188 164.613281 Z M 219.535156 119.625 Z M 220.398438 117.832031 Z M 165.105469 216.054688 C 159.074219 217.417969 153.328125 219.859375 148.304688 223.445312 C 145 225.597656 141.984375 228.398438 140.332031 232.128906 C 143.996094 229.472656 147.441406 226.316406 151.320312 223.804688 C 155.84375 220.933594 160.871094 218.925781 166.109375 217.851562 C 172.285156 216.558594 178.894531 217.347656 185.210938 217.203125 C 191.316406 216.917969 197.417969 217.132812 203.523438 216.628906 C 203.523438 216.628906 203.449219 216.628906 203.449219 216.628906 C 207.832031 216.628906 212.210938 215.410156 216.664062 215.699219 C 218.242188 215.984375 219.964844 215.769531 221.472656 216.269531 C 221.402344 216.054688 221.1875 215.769531 221.042969 215.554688 C 217.523438 212.039062 209.914062 214.40625 205.390625 214.621094 C 200.21875 214.90625 194.832031 215.125 189.664062 215.125 C 181.40625 215.699219 173.148438 214.335938 165.105469 216.054688 Z M 287.679688 100.324219 C 287.96875 101.761719 287.75 104.917969 287.609375 106.496094 C 287.464844 109.222656 287.035156 113.097656 286.746094 115.824219 C 286.316406 119.195312 286.457031 123.140625 285.742188 124.359375 C 285.238281 134.476562 283.371094 144.523438 281.433594 154.496094 C 279.132812 164.179688 275.042969 173.4375 270.660156 182.335938 C 268.21875 187.214844 266.425781 192.449219 263.335938 196.898438 C 262.835938 199.195312 262.332031 201.492188 261.757812 203.785156 C 260.753906 208.019531 260.105469 212.398438 258.597656 216.488281 C 258.382812 226.386719 257.234375 237.582031 250.699219 243.464844 C 244.308594 250.066406 234.972656 252.003906 226.5 254.65625 C 222.480469 255.875 218.386719 257.097656 214.292969 258.246094 C 212.210938 258.890625 210.058594 259.464844 207.832031 259.75 C 206.035156 260.613281 204.023438 261.113281 202.230469 261.902344 C 197.203125 263.769531 192.25 265.777344 187.222656 267.5 C 168.695312 274.386719 149.09375 279.339844 132.003906 289.597656 C 128.628906 291.894531 125.253906 294.191406 122.164062 296.773438 C 116.707031 301.796875 111.324219 306.890625 106.367188 312.34375 C 98.972656 320.019531 91.574219 327.699219 84.25 335.445312 C 80.660156 339.105469 77.214844 342.550781 73.910156 346.421875 C 70.679688 350.011719 67.378906 353.742188 63.210938 356.109375 C 65.367188 352.378906 68.597656 349.292969 71.46875 346.207031 C 78.792969 337.8125 86.691406 329.992188 94.449219 322.027344 C 100.910156 315.214844 107.230469 308.324219 113.90625 301.796875 C 117.929688 297.921875 121.949219 293.976562 126.6875 290.890625 C 136.957031 283.429688 149.019531 278.765625 160.941406 274.53125 C 170.417969 271.300781 179.898438 268.074219 189.304688 264.628906 C 194.332031 262.765625 199.285156 260.828125 204.242188 258.960938 C 206.324219 258.101562 208.546875 257.382812 210.773438 257.238281 C 212.640625 256.59375 214.582031 256.019531 216.519531 255.519531 C 221.402344 254.15625 226.214844 252.648438 231.023438 251.214844 C 236.914062 249.417969 243.160156 247.480469 247.898438 243.464844 C 252.207031 240.019531 254.289062 235.429688 255.367188 230.117188 C 256.660156 223.300781 256.804688 216.269531 256.804688 209.3125 C 256.300781 192.09375 256.085938 173.722656 246.460938 158.800781 C 244.238281 155.570312 242.011719 152.269531 239.785156 149.042969 C 237.773438 146.246094 235.40625 143.734375 233.25 141.078125 C 232.890625 140.578125 232.460938 140.144531 232.101562 139.644531 C 232.101562 139.570312 232.03125 139.5 232.03125 139.5 C 232.03125 139.429688 231.957031 139.429688 231.957031 139.355469 C 231.886719 139.285156 231.8125 139.214844 231.8125 139.140625 C 231.671875 138.996094 231.597656 138.855469 231.453125 138.640625 C 231.167969 138.351562 230.953125 137.992188 230.664062 137.707031 C 230.449219 137.492188 230.234375 137.277344 230.089844 136.988281 C 229.011719 135.699219 227.9375 134.40625 226.789062 133.1875 C 224.992188 131.320312 223.054688 129.597656 221.042969 127.949219 C 220.972656 127.875 220.898438 127.804688 220.828125 127.734375 C 220.539062 127.519531 220.253906 127.230469 219.964844 127.015625 C 219.246094 126.371094 218.53125 125.796875 217.738281 125.148438 C 213.863281 121.851562 209.984375 118.40625 205.820312 115.464844 C 204.671875 116.324219 202.445312 116.753906 200.648438 115.894531 C 199.359375 115.320312 197.273438 113.597656 196.199219 112.59375 C 194.617188 111.230469 193.398438 110.082031 192.320312 109.007812 C 192.175781 109.007812 192.035156 109.007812 191.816406 109.007812 C 190.957031 109.222656 190.597656 110.082031 190.597656 110.871094 C 190.308594 112.59375 191.242188 114.027344 192.175781 115.464844 C 195.265625 119.984375 199.859375 123.070312 203.738281 126.730469 C 207.542969 130.027344 210.988281 133.6875 214.292969 137.5625 C 214.292969 137.5625 214.363281 137.632812 214.363281 137.632812 C 214.363281 137.632812 214.363281 137.632812 214.4375 137.707031 C 215.871094 139.355469 217.238281 141.078125 218.601562 142.800781 C 221.257812 145.742188 223.699219 148.898438 225.640625 152.269531 C 225.640625 152.34375 225.710938 152.414062 225.710938 152.414062 C 225.710938 152.414062 225.710938 152.488281 225.78125 152.488281 C 225.78125 152.488281 225.855469 152.488281 225.855469 152.558594 C 226.644531 153.992188 227.433594 155.5 228.082031 157.078125 C 231.671875 163.894531 234.039062 171.355469 235.476562 178.890625 C 235.546875 179.679688 235.40625 180.46875 235.261719 181.257812 C 236.410156 183.480469 237.34375 185.777344 238.277344 188.074219 C 239.570312 191.085938 240.789062 194.101562 241.578125 197.257812 C 242.511719 200.269531 243.160156 203.429688 243.589844 206.585938 C 244.09375 209.238281 244.453125 212.324219 242.800781 214.691406 C 242.730469 214.550781 242.730469 214.335938 242.65625 214.117188 C 242.296875 212.613281 241.867188 211.105469 241.9375 209.527344 C 241.507812 205.867188 240.933594 202.28125 239.855469 198.835938 C 239.066406 195.609375 237.988281 192.449219 236.625 189.4375 C 235.261719 186.207031 234.113281 183.125 232.246094 180.183594 C 230.089844 176.808594 227.503906 174.15625 224.921875 171.140625 C 223.054688 168.988281 221.332031 166.691406 219.464844 164.539062 C 219.390625 164.398438 219.246094 164.183594 219.175781 164.039062 C 219.175781 163.964844 219.105469 163.894531 219.105469 163.894531 C 218.960938 163.679688 218.746094 163.464844 218.601562 163.25 C 218.386719 162.960938 218.171875 162.746094 217.882812 162.601562 C 217.8125 162.460938 217.667969 162.386719 217.597656 162.316406 C 216.734375 161.3125 215.875 160.308594 214.941406 159.375 C 207.472656 152.054688 199.429688 145.457031 191.242188 138.996094 C 190.023438 139.785156 187.796875 140.003906 186 139.070312 C 184.78125 138.425781 182.84375 136.558594 181.765625 135.480469 C 180.328125 134.046875 179.179688 132.828125 178.175781 131.609375 C 177.886719 131.894531 177.671875 132.183594 177.601562 132.539062 C 177.242188 135.914062 177.886719 139.5 179.828125 142.371094 C 181.765625 145.382812 184.207031 147.679688 186.359375 150.476562 C 188.660156 153.417969 190.882812 156.433594 193.324219 159.230469 C 197.273438 164.183594 202.230469 168.199219 206.683594 172.648438 C 212.640625 179.390625 217.453125 187.140625 220.398438 195.609375 C 222.335938 201.492188 224.058594 208.09375 221.976562 214.191406 C 221.332031 210.746094 220.972656 207.375 220.613281 203.929688 C 219.246094 196.539062 216.230469 189.582031 212.28125 183.195312 C 211.78125 182.40625 211.207031 181.6875 210.703125 180.898438 C 210.34375 181.832031 210.058594 182.765625 209.839844 183.769531 C 209.554688 185.707031 209.410156 187.714844 209.410156 189.652344 C 209.839844 192.09375 210.558594 194.675781 211.921875 196.613281 C 214.363281 198.980469 216.664062 201.707031 219.824219 202.996094 C 216.230469 203.429688 213.144531 200.84375 210.847656 198.335938 C 210.703125 198.191406 210.632812 198.117188 210.488281 197.976562 C 209.195312 196.539062 208.691406 194.53125 208.046875 192.738281 C 207.6875 191.589844 207.328125 190.441406 207.328125 189.222656 C 207.113281 185.632812 207.972656 182.191406 209.195312 178.890625 C 208.191406 177.527344 207.183594 176.234375 206.179688 174.945312 C 202.230469 170.566406 197.5625 167.265625 193.828125 162.746094 C 193.039062 161.886719 192.25 160.953125 191.53125 160.09375 C 191.457031 160.164062 191.386719 160.308594 191.316406 160.378906 C 190.09375 161.742188 189.015625 163.25 187.652344 164.398438 C 186.21875 165.617188 184.710938 166.765625 183.128906 167.914062 C 180.757812 169.707031 178.175781 171.140625 175.734375 172.863281 C 171.351562 176.019531 167.402344 179.679688 163.3125 183.050781 C 156.777344 188.71875 148.589844 192.523438 141.914062 197.902344 C 138.96875 200.414062 136.3125 203.644531 134.15625 206.800781 C 131.5 210.53125 129.777344 214.765625 128.054688 218.925781 C 124.246094 227.535156 119.222656 236.003906 111.683594 241.886719 C 103.066406 249.0625 93.082031 254.371094 84.539062 261.6875 C 73.121094 272.164062 62.207031 283.140625 50.933594 293.761719 C 47.988281 296.269531 45.621094 299.929688 41.742188 300.933594 C 42.746094 298.996094 44.183594 297.417969 45.835938 295.984375 C 51.363281 290.601562 56.964844 285.292969 62.566406 279.914062 C 70.535156 272.523438 77.859375 264.488281 86.335938 257.671875 C 96.101562 250.066406 107.445312 244.253906 116.0625 235.140625 C 119.652344 231.050781 122.238281 226.246094 124.824219 221.507812 C 126.976562 216.988281 128.484375 212.109375 131.214844 207.804688 C 139.039062 194.675781 147.511719 192.308594 158.929688 183.984375 C 163.023438 180.972656 166.542969 177.671875 170.417969 174.441406 C 173.363281 172.074219 176.378906 169.921875 179.539062 167.839844 C 181.117188 166.835938 182.699219 165.761719 184.207031 164.753906 C 185.929688 163.535156 187.726562 162.460938 189.089844 160.808594 C 189.304688 160.59375 190.8125 158.800781 190.667969 158.585938 C 188.226562 155.570312 185.929688 152.488281 183.558594 149.546875 C 181.476562 147.035156 179.109375 144.59375 177.601562 141.722656 C 176.59375 139.785156 176.019531 137.707031 175.875 135.554688 C 175.804688 133.902344 175.519531 132.183594 176.378906 130.675781 C 176.59375 130.316406 176.882812 129.957031 177.167969 129.742188 C 175.875 128.09375 174.65625 126.371094 173.21875 124.074219 C 172.359375 122.710938 171.570312 121.203125 172 120.34375 C 172.359375 119.480469 172.644531 118.40625 173.9375 119.125 C 175.300781 119.839844 177.671875 122.207031 178.894531 123.285156 C 180.976562 125.222656 183.917969 128.164062 185.929688 130.246094 C 188.371094 132.753906 191.601562 135.339844 192.25 136.703125 C 196.125 139.785156 199.933594 142.871094 203.664062 146.101562 C 206.105469 143.445312 208.476562 140.792969 211.132812 138.28125 C 211.421875 137.992188 211.707031 137.707031 211.996094 137.417969 C 209.339844 134.335938 206.464844 131.320312 203.449219 128.667969 C 198.496094 123.859375 192.25 119.984375 189.160156 113.597656 C 188.15625 110.65625 188.800781 107.929688 190.882812 106.925781 C 189.519531 105.417969 188.300781 103.914062 186.792969 101.832031 C 185.859375 100.539062 184.996094 99.105469 185.285156 98.246094 C 185.570312 97.382812 185.785156 96.308594 187.152344 96.882812 C 188.515625 97.457031 191.101562 99.679688 192.390625 100.683594 C 194.617188 102.476562 197.777344 105.203125 199.933594 107.140625 C 202.589844 109.507812 206.035156 111.875 206.753906 113.167969 C 211.421875 116.46875 215.800781 120.414062 220.179688 124.144531 C 220.972656 122.207031 221.832031 120.269531 222.910156 118.40625 C 224.203125 115.035156 227.003906 110.15625 227.722656 109.582031 C 229.804688 107.859375 233.753906 113.097656 233.539062 118.191406 C 233.539062 118.765625 233.394531 119.480469 233.25 120.199219 C 233.753906 121.5625 233.539062 123.070312 233.609375 124.503906 C 233.753906 128.019531 233.320312 131.535156 232.746094 134.980469 C 232.675781 135.410156 232.53125 135.839844 232.386719 136.269531 C 233.464844 137.5625 234.472656 138.855469 235.476562 140.144531 C 238.5625 143.445312 241.222656 147.035156 243.804688 150.765625 C 243.519531 148.539062 244.164062 146.246094 243.949219 144.019531 C 243.804688 138.996094 243.230469 134.117188 241.9375 129.238281 C 241.003906 124.503906 239.066406 120.054688 237.628906 115.464844 C 236.695312 112.449219 235.621094 109.367188 235.835938 106.207031 C 235.90625 101.617188 238.203125 97.527344 241.222656 94.15625 C 241.578125 93.652344 241.9375 93.292969 242.371094 93.078125 C 242.082031 91.285156 241.867188 89.492188 241.652344 87.195312 C 241.507812 85.546875 241.578125 83.679688 242.441406 83.035156 C 243.304688 82.386719 244.238281 81.457031 245.242188 82.675781 C 246.246094 83.964844 247.46875 87.339844 248.113281 88.988281 C 249.191406 91.789062 250.628906 96.019531 251.5625 98.890625 C 252.78125 102.691406 254.9375 106.925781 254.503906 108.289062 C 254.503906 108.359375 254.433594 108.503906 254.363281 108.578125 C 259.601562 122.136719 261.398438 136.988281 263.625 151.265625 C 263.984375 153.492188 264.414062 155.714844 264.84375 157.867188 C 265.636719 155.714844 266.710938 153.707031 267.359375 151.480469 C 268.507812 147.679688 269.726562 144.019531 270.160156 140.144531 C 271.667969 131.105469 271.59375 121.492188 275.976562 113.097656 C 277.195312 111.375 278.488281 109.367188 280.425781 108.359375 C 280.929688 108.21875 281.359375 108.21875 281.71875 108.289062 C 282.152344 106.496094 282.652344 104.703125 283.441406 102.476562 C 283.945312 101.042969 284.59375 99.609375 285.527344 99.320312 C 286.316406 99.390625 287.320312 98.960938 287.679688 100.324219 Z M 224.707031 155.070312 C 223.269531 157.582031 221.546875 159.875 219.964844 162.246094 C 221.832031 164.398438 223.628906 166.691406 225.421875 168.917969 C 228.007812 172.003906 230.878906 174.945312 233.179688 178.316406 C 231.8125 173.222656 230.664062 168.054688 228.582031 163.25 C 227.21875 160.59375 225.996094 157.796875 224.707031 155.070312 Z M 213 139.355469 C 210.632812 141.796875 208.046875 144.234375 205.890625 146.746094 C 205.605469 147.105469 205.246094 147.464844 204.886719 147.824219 C 206.898438 149.542969 208.980469 151.339844 210.917969 153.058594 C 213.648438 155.429688 216.230469 158.011719 218.601562 160.664062 C 218.671875 160.523438 218.746094 160.449219 218.816406 160.308594 C 220.539062 157.867188 222.121094 155.570312 223.554688 152.988281 C 223.199219 152.414062 222.910156 151.839844 222.550781 151.265625 C 220.46875 148.039062 217.882812 145.382812 215.515625 142.441406 C 214.652344 141.4375 213.863281 140.359375 213 139.355469 Z M 231.382812 124.21875 C 231.382812 123.355469 231.457031 122.496094 231.3125 121.707031 C 231.023438 119.984375 230.019531 118.476562 228.796875 117.328125 C 228.367188 116.972656 227.363281 116.324219 226.789062 116.683594 C 225.566406 117.402344 224.921875 118.765625 224.203125 119.914062 C 223.054688 121.777344 222.121094 123.859375 221.332031 125.867188 C 222.121094 126.511719 222.839844 127.160156 223.628906 127.734375 C 226.140625 129.8125 228.4375 132.253906 230.523438 134.765625 C 230.953125 132.324219 231.097656 129.8125 231.3125 127.375 C 231.457031 126.296875 231.382812 125.222656 231.382812 124.21875 Z M 264.703125 171.5 C 264.484375 167.195312 263.625 162.960938 262.835938 158.800781 C 261.757812 152.773438 260.824219 146.960938 259.960938 141.007812 C 258.3125 130.460938 256.300781 119.839844 252.566406 109.867188 C 250.769531 110.082031 248.257812 109.367188 246.964844 107.644531 C 246.03125 106.421875 245.027344 103.769531 244.523438 102.261719 C 243.664062 99.75 243.085938 97.742188 242.65625 95.804688 C 239.210938 99.464844 237.054688 104.414062 237.773438 109.367188 C 238.78125 114.171875 240.503906 118.691406 242.152344 123.285156 C 243.734375 128.449219 244.953125 133.6875 245.457031 139.070312 C 245.816406 143.085938 246.320312 147.320312 244.953125 151.195312 C 244.8125 151.554688 244.597656 151.914062 244.453125 152.269531 C 244.882812 152.917969 245.3125 153.632812 245.746094 154.28125 C 247.46875 156.648438 249.046875 159.085938 250.410156 161.671875 C 258.023438 175.589844 258.238281 191.949219 258.8125 207.375 C 258.8125 207.804688 258.8125 208.234375 258.8125 208.59375 C 258.957031 208.09375 259.027344 207.589844 259.171875 207.085938 C 261.46875 195.390625 265.0625 183.554688 264.703125 171.5 Z M 283.730469 124.792969 C 282.367188 124.359375 280.785156 122.855469 280.355469 120.988281 C 280.066406 119.699219 280.285156 117.1875 280.425781 115.75 C 280.640625 113.671875 280.859375 112.019531 281.144531 110.511719 C 281.074219 110.511719 281 110.511719 280.859375 110.585938 C 278.632812 112.378906 277.050781 114.890625 276.117188 117.617188 C 273.894531 123.285156 273.390625 129.527344 272.671875 135.554688 C 272.097656 140.503906 271.308594 145.597656 269.65625 150.335938 C 269.152344 152.269531 268.507812 154.136719 267.644531 156.003906 C 267 157.722656 266.28125 159.445312 264.988281 160.738281 C 265.417969 163.175781 265.851562 165.6875 266.210938 168.199219 C 266.855469 173.652344 266.496094 179.175781 265.5625 184.628906 C 265.203125 186.78125 264.773438 188.933594 264.34375 191.085938 C 266.210938 185.777344 269.226562 180.828125 271.453125 175.734375 C 271.453125 175.734375 271.453125 175.734375 271.453125 175.804688 C 275.976562 166.046875 279.636719 155.785156 280.929688 145.097656 C 282.367188 138.207031 283.371094 131.535156 283.730469 124.792969 Z M 121.304688 129.023438 C 121.304688 123.070312 129.347656 111.300781 133.367188 111.300781 C 129.273438 111.300781 121.304688 99.464844 121.304688 93.582031 C 121.304688 99.535156 113.261719 111.300781 109.242188 111.300781 C 113.332031 111.300781 121.304688 123.070312 121.304688 129.023438 Z M 319.847656 43.070312 C 314.320312 43.070312 303.332031 26.855469 303.332031 18.890625 C 303.332031 26.996094 292.347656 43.070312 286.816406 43.070312 C 292.347656 43.070312 303.332031 59.140625 303.332031 67.25 C 303.332031 59.140625 314.320312 43.070312 319.847656 43.070312 Z M 321.429688 131.609375 C 321.429688 137.5625 313.386719 149.328125 309.363281 149.328125 C 313.457031 149.328125 321.429688 161.097656 321.429688 167.050781 C 321.429688 161.097656 329.472656 149.328125 333.492188 149.328125 C 329.472656 149.257812 321.429688 137.417969 321.429688 131.609375 Z M 321.429688 131.609375 " fill-opacity="1" fill-rule="nonzero"/></g></svg>