<svg xmlns="http://www.w3.org/2000/svg" xmlns:xlink="http://www.w3.org/1999/xlink" width="500" zoomAndPan="magnify" viewBox="0 0 375 374.999991" height="500" preserveAspectRatio="xMidYMid meet" version="1.0"><defs><clipPath id="d48ea3adf4"><path d="M 15 17.734375 L 361 17.734375 L 361 357.484375 L 15 357.484375 Z M 15 17.734375 " clip-rule="nonzero"/></clipPath></defs><g clip-path="url(#d48ea3adf4)"><path fill="#000000" d="M 267.78125 141.445312 C 270.308594 141.445312 275.367188 134 275.367188 130.242188 C 275.367188 134 280.425781 141.445312 282.957031 141.445312 C 280.425781 141.445312 275.367188 148.890625 275.367188 152.652344 C 275.367188 148.890625 270.308594 141.445312 267.78125 141.445312 Z M 235.667969 231.238281 C 235.667969 227.476562 240.726562 220.03125 243.253906 220.03125 C 240.726562 220.03125 235.667969 212.589844 235.667969 208.828125 C 235.667969 212.589844 230.609375 220.03125 228.078125 220.03125 C 230.609375 220.03125 235.667969 227.476562 235.667969 231.238281 Z M 210.375 103.378906 C 210.375 99.621094 215.433594 92.175781 217.960938 92.175781 C 215.433594 92.175781 210.375 84.730469 210.375 80.972656 C 210.375 84.730469 205.316406 92.175781 202.785156 92.175781 C 205.316406 92.253906 210.375 99.695312 210.375 103.378906 Z M 260.574219 329.085938 C 262.183594 331.621094 262.722656 334.230469 262.109375 336.609375 C 261.34375 339.21875 259.195312 341.367188 255.902344 342.746094 C 254.597656 343.285156 253.292969 343.667969 251.914062 344.128906 C 251.300781 344.28125 250.613281 344.4375 250 344.511719 C 249.386719 344.589844 248.773438 344.667969 248.160156 344.898438 C 247.316406 345.203125 246.550781 345.742188 245.785156 346.355469 C 244.863281 347.046875 243.867188 347.8125 242.640625 348.042969 L 242.410156 348.121094 C 241.953125 348.195312 241.570312 348.273438 241.339844 348.503906 C 241.261719 348.582031 241.183594 348.65625 241.109375 348.734375 C 240.878906 349.117188 240.417969 349.65625 240.113281 349.960938 C 239.652344 350.421875 239.117188 350.804688 238.578125 351.191406 C 237.351562 351.957031 235.972656 352.339844 234.671875 352.339844 L 234.59375 352.339844 C 232.601562 352.1875 230.683594 351.804688 228.769531 351.496094 C 228.078125 351.34375 227.3125 351.265625 226.621094 351.113281 C 226.46875 351.421875 226.238281 351.804688 226.085938 352.1875 C 225.550781 353.414062 224.859375 354.71875 223.789062 355.640625 C 221.488281 357.484375 218.574219 357.484375 215.28125 355.71875 C 213.671875 354.875 211.90625 353.570312 210.449219 352.496094 C 209.992188 352.109375 209.53125 351.804688 209.148438 351.574219 C 207.308594 352.570312 204.703125 353.570312 202.558594 353.414062 C 198.570312 353.109375 194.664062 351.648438 190.292969 348.8125 C 187.613281 347.046875 184.316406 345.585938 180.332031 344.359375 C 175.730469 342.902344 170.980469 341.441406 167.609375 337.527344 C 163.699219 333.078125 161.015625 329.546875 158.871094 326.015625 C 155.726562 320.796875 152.585938 315.503906 149.519531 310.285156 C 145.304688 303.070312 140.9375 295.550781 136.335938 288.414062 C 132.429688 282.273438 127.675781 276.824219 122.234375 270.761719 C 119.707031 267.921875 116.714844 265.390625 113.878906 262.933594 C 112.808594 262.011719 111.734375 261.089844 110.660156 260.171875 C 109.359375 259.019531 107.980469 257.867188 106.675781 256.714844 L 106.140625 256.257812 C 106.0625 257.636719 106.0625 259.097656 106.0625 260.628906 C 106.140625 264.3125 106.292969 268 106.523438 271.605469 C 106.675781 274.292969 106.828125 277.054688 106.90625 279.816406 C 106.984375 282.578125 107.980469 284.574219 109.972656 286.035156 C 111.351562 287.109375 112.808594 288.183594 114.1875 289.488281 C 115.105469 290.332031 116.027344 291.25 116.945312 292.097656 C 119.933594 294.9375 123 297.851562 125.761719 301 C 127.445312 302.992188 128.210938 305.144531 127.984375 307.214844 C 128.597656 307.980469 128.902344 308.902344 128.980469 310.132812 C 128.980469 310.4375 128.75 310.667969 128.519531 310.820312 C 128.519531 310.820312 128.519531 310.820312 128.441406 310.820312 C 128.671875 311.128906 128.980469 311.511719 129.210938 311.820312 C 130.742188 313.890625 132.351562 315.964844 133.042969 318.34375 C 133.347656 319.339844 133.5 320.339844 133.65625 321.335938 L 133.808594 321.414062 L 133.65625 321.488281 C 133.882812 322.949219 133.960938 324.484375 134.039062 325.789062 C 134.113281 326.554688 134.113281 327.398438 134.113281 328.167969 C 134.191406 329.242188 134.191406 330.316406 134.269531 331.3125 C 134.34375 332.769531 133.730469 333.613281 133.042969 334.613281 C 132.734375 335.074219 132.351562 335.609375 131.96875 336.300781 C 131.585938 337.144531 131.203125 338.375 130.894531 339.601562 C 130.664062 340.597656 130.359375 341.597656 130.050781 342.289062 C 129.824219 342.902344 129.4375 343.515625 129.132812 344.050781 C 128.597656 345.050781 128.136719 345.894531 127.90625 346.890625 C 126.757812 352.339844 122.617188 356.179688 117.175781 356.714844 C 116.871094 356.714844 116.640625 356.792969 116.332031 356.867188 C 116.027344 356.945312 115.644531 357.023438 115.335938 357.023438 C 114.109375 357.097656 112.960938 357.175781 111.8125 357.175781 C 100.160156 357.175781 91.117188 351.957031 86.136719 342.210938 C 83.605469 337.300781 79.699219 332.925781 75.941406 328.855469 C 74.332031 327.09375 72.339844 325.558594 70.5 324.097656 C 68.585938 322.5625 66.589844 321.027344 64.90625 319.1875 C 62.988281 317.039062 61.378906 313.96875 60.613281 310.667969 C 60.078125 308.441406 60.230469 306.140625 60.382812 303.839844 C 60.460938 302.917969 60.460938 301.917969 60.460938 301 C 60.460938 298.773438 60.535156 296.546875 60.613281 294.398438 C 60.765625 289.640625 60.84375 284.730469 60.535156 279.894531 C 60.078125 273.832031 59.234375 267.691406 58.3125 261.78125 C 58.085938 260.09375 57.855469 258.40625 57.625 256.714844 C 57.546875 255.71875 56.703125 253.109375 56.550781 252.878906 C 56.246094 252.265625 55.785156 251.652344 55.402344 250.960938 C 55.09375 250.578125 54.863281 250.117188 54.636719 249.734375 C 53.945312 248.734375 52.640625 246.738281 52.640625 246.738281 C 49.652344 242.59375 45.746094 238.757812 40.148438 234.230469 C 32.714844 228.320312 25.203125 221.644531 20.375 212.589844 C 16.160156 204.683594 12.328125 194.246094 20.605469 183.960938 C 22.0625 182.121094 23.746094 180.355469 25.816406 178.207031 C 27.042969 176.980469 28.347656 175.828125 29.574219 174.753906 C 31.949219 172.679688 34.324219 170.457031 36.242188 168 C 40.761719 162.167969 45.054688 155.796875 49.039062 149.121094 C 56.089844 137.300781 62.914062 124.253906 65.59375 109.597656 C 65.902344 107.984375 66.207031 106.21875 66.667969 103.917969 C 64.445312 99.773438 62.53125 95.398438 60.613281 91.179688 C 59.539062 88.796875 58.46875 86.34375 57.316406 83.964844 C 55.402344 79.894531 53.484375 75.753906 51.644531 71.761719 L 51.109375 70.6875 C 50.34375 69 49.652344 67.308594 48.964844 65.621094 C 47.507812 62.089844 46.050781 58.484375 43.980469 55.261719 C 39 47.664062 35.089844 38.835938 31.566406 27.402344 C 31.183594 26.097656 30.953125 24.640625 30.722656 23.257812 C 30.644531 22.644531 30.570312 22.03125 30.414062 21.417969 L 30.261719 20.726562 L 30.953125 20.878906 C 31.71875 21.03125 32.101562 21.417969 32.253906 22.03125 C 34.476562 33.3125 38.464844 43.289062 44.441406 52.652344 C 46.816406 56.414062 48.734375 60.554688 50.574219 64.546875 C 50.878906 65.316406 51.261719 66.003906 51.570312 66.773438 C 52.105469 68 52.566406 69.304688 52.949219 70.609375 C 53.332031 71.839844 53.714844 73.144531 54.25 74.292969 C 58.621094 83.578125 62.605469 92.023438 66.898438 100.464844 C 68.660156 103.839844 70.5 107.292969 72.339844 110.515625 C 74.332031 114.046875 76.324219 117.65625 78.164062 121.339844 C 81.691406 128.398438 85.214844 135.691406 88.589844 142.75 C 90.351562 146.433594 92.113281 150.117188 93.875 153.800781 C 95.332031 156.71875 96.789062 159.632812 98.246094 162.628906 C 101.15625 168.460938 104.148438 174.445312 106.828125 180.507812 C 110.96875 189.796875 110.585938 198.007812 105.679688 205.527344 C 105.296875 206.140625 104.835938 206.832031 104.453125 207.445312 C 99.777344 214.507812 95.027344 221.796875 94.566406 230.855469 L 94.566406 230.929688 C 94.335938 235.6875 94.105469 240.601562 97.09375 244.359375 C 100.542969 248.660156 104.375 253.570312 109.128906 256.871094 C 114.1875 260.402344 119.09375 264.773438 124.609375 270.835938 C 132.351562 279.28125 139.402344 289.179688 145.609375 300.078125 C 151.128906 309.824219 157.183594 319.878906 164.082031 330.851562 C 167.609375 336.378906 172.742188 340.214844 179.488281 342.210938 C 183.625 343.4375 187.613281 345.203125 191.214844 347.351562 C 194.433594 349.269531 198.339844 351.265625 202.941406 351.421875 C 204.089844 351.496094 206.082031 350.804688 207.386719 350.269531 C 207.386719 350.269531 207.460938 350.269531 207.460938 350.191406 C 207.539062 349.960938 207.460938 349.578125 207.308594 349.269531 C 207.308594 349.195312 207.230469 349.195312 207.230469 349.117188 C 207.078125 349.347656 207.003906 349.5 206.773438 349.65625 C 206.160156 350.269531 205.394531 350.574219 204.394531 350.574219 C 204.320312 350.574219 204.242188 350.574219 204.089844 350.574219 C 202.785156 350.5 201.714844 349.960938 201.175781 349.117188 C 200.71875 348.503906 200.640625 347.734375 200.871094 346.96875 C 201.175781 345.894531 201.945312 345.050781 202.632812 344.207031 C 202.863281 343.976562 203.09375 343.820312 203.398438 343.667969 C 201.789062 341.671875 200.105469 339.679688 198.496094 337.683594 C 197.652344 336.609375 196.730469 335.609375 195.890625 334.535156 L 193.359375 331.464844 L 196.503906 333.921875 C 196.730469 334.152344 197.039062 334.304688 197.421875 334.535156 C 198.265625 335.148438 199.261719 335.765625 200.027344 336.683594 L 200.410156 337.222656 C 202.097656 339.21875 203.859375 341.289062 205.46875 343.4375 C 206.160156 343.667969 206.695312 344.128906 207.078125 344.742188 C 207.308594 345.203125 207.617188 345.894531 207.691406 346.585938 C 207.769531 346.660156 207.84375 346.816406 207.921875 346.890625 C 209.839844 349.886719 212.519531 352.265625 216.046875 354.027344 C 218.34375 355.179688 221.640625 354.949219 223.097656 353.492188 C 224.015625 352.570312 224.324219 351.191406 224.171875 349.808594 C 223.789062 350.269531 223.25 350.730469 222.636719 351.265625 C 222.332031 351.574219 222.023438 351.878906 221.640625 352.1875 C 221.335938 352.496094 220.953125 352.648438 220.492188 352.648438 C 220.414062 352.648438 220.414062 352.648438 220.339844 352.648438 C 219.878906 352.570312 219.417969 352.339844 219.113281 351.957031 C 218.882812 351.726562 218.730469 351.421875 218.574219 351.191406 C 217.578125 349.886719 216.8125 348.886719 217.042969 347.964844 C 217.273438 346.738281 218.34375 345.742188 219.34375 344.742188 L 219.726562 344.359375 C 220.109375 343.976562 220.566406 343.820312 221.105469 343.898438 C 219.878906 342.210938 218.652344 340.753906 217.347656 339.523438 C 215.28125 337.453125 213.058594 335.457031 210.835938 333.539062 C 209.914062 332.695312 208.917969 331.851562 208 331.003906 L 205.238281 328.550781 L 208.535156 330.316406 C 215.050781 333.84375 220.339844 338.910156 224.246094 345.28125 C 226.777344 349.425781 230.148438 351.035156 234.976562 350.421875 C 236.511719 350.191406 238.65625 349.039062 239.269531 347.8125 C 239.5 347.277344 239.191406 346.277344 238.503906 345.050781 C 237.582031 346.046875 236.664062 346.96875 235.511719 347.507812 C 235.4375 347.582031 235.359375 347.582031 235.285156 347.582031 C 234.746094 347.582031 234.058594 346.890625 232.90625 345.511719 L 232.292969 344.820312 C 231.988281 344.4375 231.835938 343.976562 231.835938 343.515625 C 231.835938 343.054688 232.066406 342.59375 232.449219 342.289062 L 232.90625 341.828125 C 233.597656 341.210938 234.210938 340.675781 234.824219 340.367188 C 234.210938 339.753906 233.519531 339.140625 232.90625 338.449219 L 232.371094 337.914062 C 230.378906 335.996094 228.460938 334.074219 226.316406 332.464844 C 224.628906 331.160156 222.789062 329.929688 220.953125 328.78125 C 220.183594 328.242188 219.34375 327.78125 218.574219 327.246094 L 218.957031 326.476562 C 226.46875 329.546875 232.21875 334.765625 237.125 340.523438 C 237.734375 340.90625 238.273438 341.519531 238.734375 342.058594 L 238.960938 342.289062 C 239.191406 342.59375 239.347656 342.902344 239.421875 343.207031 C 240.265625 344.207031 241.03125 345.203125 241.796875 346.277344 C 244.328125 345.972656 246.320312 344.359375 247.394531 341.75 C 247.777344 340.828125 247.777344 339.984375 247.546875 339.140625 C 246.855469 339.90625 246.242188 340.445312 245.628906 340.445312 C 245.554688 340.445312 245.476562 340.445312 245.402344 340.445312 C 244.328125 340.214844 243.40625 339.292969 242.410156 338.144531 L 241.953125 337.605469 C 241.644531 337.300781 241.492188 336.761719 241.492188 336.300781 C 241.570312 335.839844 241.796875 335.378906 242.179688 335.074219 L 242.566406 334.765625 C 243.023438 334.382812 243.484375 334.074219 243.867188 333.84375 C 238.886719 328.394531 232.832031 323.792969 225.855469 320.03125 C 225.011719 319.570312 224.246094 318.957031 223.480469 318.417969 C 223.097656 318.1875 222.789062 317.882812 222.40625 317.652344 L 222.023438 317.421875 L 223.097656 315.886719 L 223.480469 316.117188 C 225.167969 317.34375 226.929688 318.496094 228.691406 319.648438 C 232.679688 322.257812 236.738281 325.019531 240.417969 328.167969 C 240.878906 328.550781 241.339844 329.011719 241.875 329.394531 C 243.867188 331.082031 246.015625 332.925781 247.546875 335.226562 C 247.777344 335.457031 247.929688 335.609375 248.160156 335.839844 L 248.3125 336.070312 C 248.773438 336.53125 248.925781 337.144531 248.695312 337.757812 C 249.234375 339.292969 249.460938 340.984375 249.234375 342.976562 C 249.847656 342.824219 250.382812 342.671875 250.917969 342.515625 C 252.375 342.132812 253.832031 341.75 255.132812 341.210938 C 257.816406 340.136719 259.578125 338.527344 260.191406 336.53125 C 260.730469 334.84375 260.5 332.925781 259.503906 330.929688 C 257.96875 333.15625 255.363281 335.457031 253.984375 335.609375 C 253.90625 335.609375 253.832031 335.609375 253.753906 335.609375 C 253.21875 335.609375 252.605469 335.457031 252.222656 335.074219 C 251.761719 334.613281 251.226562 334.230469 250.765625 333.769531 C 249.234375 332.464844 247.699219 331.082031 246.472656 329.472656 C 245.554688 328.242188 245.476562 326.324219 246.398438 324.480469 C 247.085938 323.023438 248.238281 321.949219 249.539062 321.414062 C 249.078125 321.105469 248.621094 320.796875 248.160156 320.414062 C 246.398438 319.109375 244.480469 317.804688 242.71875 316.5 C 240.726562 315.042969 238.734375 313.585938 236.738281 312.203125 C 231.605469 308.519531 226.238281 304.683594 221.488281 300.308594 C 216.121094 295.394531 211.753906 288.640625 207.921875 279.203125 C 206.160156 274.828125 204.320312 270.53125 202.558594 266.234375 C 200.640625 261.628906 198.648438 256.871094 196.730469 252.113281 C 196.425781 251.269531 196.042969 250.421875 195.734375 249.578125 C 194.125 245.742188 192.515625 241.675781 191.289062 237.605469 C 190.371094 234.308594 189.605469 230.855469 188.835938 227.554688 C 187.839844 223.027344 186.769531 218.34375 185.234375 213.894531 C 182.476562 205.910156 179.179688 197.929688 176.039062 190.253906 C 174.8125 187.339844 173.664062 184.421875 172.4375 181.507812 C 170.597656 176.980469 168.757812 172.449219 166.917969 168 C 163.238281 159.097656 159.40625 149.8125 156.035156 140.601562 C 152.050781 129.855469 150.976562 118.421875 149.902344 107.292969 C 149.367188 101.921875 148.90625 96.394531 148.0625 91.023438 C 147.21875 85.421875 147.296875 79.589844 147.375 73.910156 C 147.375 71.839844 147.449219 69.765625 147.449219 67.695312 C 147.375 60.480469 147.375 53.035156 147.449219 45.976562 C 147.449219 42.75 147.449219 39.453125 147.449219 36.226562 C 147.449219 34.539062 147.449219 32.851562 147.449219 31.164062 C 147.449219 27.09375 147.449219 22.953125 147.375 18.882812 L 147.375 17.734375 L 148.90625 17.734375 L 148.90625 18.117188 C 149.136719 20.265625 149.289062 22.566406 149.289062 24.871094 C 149.289062 28.859375 149.136719 32.929688 148.984375 36.84375 C 148.753906 42.675781 148.523438 48.660156 148.828125 54.570312 C 149.058594 59.710938 149.058594 64.855469 149.058594 69.917969 C 149.058594 73.832031 149.058594 77.824219 149.214844 81.738281 C 149.75 80.664062 150.285156 79.589844 150.824219 78.4375 C 151.128906 77.824219 151.4375 77.285156 151.664062 76.671875 C 152.355469 75.214844 153.121094 73.757812 153.886719 72.296875 C 163.777344 54.800781 171.976562 36.457031 179.871094 18.730469 L 180.332031 17.734375 L 182.246094 17.734375 L 181.941406 18.347656 C 174.199219 35.460938 165.078125 55.261719 154.808594 74.0625 C 153.734375 76.136719 152.664062 78.285156 151.589844 80.433594 C 150.824219 82.046875 150.054688 83.578125 149.289062 85.191406 C 149.597656 91.867188 150.210938 97.394531 151.207031 102.535156 C 151.972656 106.449219 152.355469 110.515625 152.664062 114.429688 C 152.96875 117.730469 153.273438 121.183594 153.8125 124.5625 C 156.339844 139.835938 162.472656 154.339844 168.296875 168.304688 C 168.988281 169.996094 169.753906 171.683594 170.445312 173.449219 C 172.054688 177.363281 173.738281 181.277344 175.425781 185.265625 C 179.027344 193.785156 182.78125 202.613281 186.15625 211.359375 C 187.765625 215.582031 188.683594 220.03125 189.679688 224.40625 C 190.21875 226.941406 190.832031 229.550781 191.519531 232.082031 C 192.976562 237.453125 194.355469 242.367188 196.195312 246.96875 C 197.726562 250.730469 199.339844 254.492188 201.023438 258.097656 C 203.09375 262.703125 205.164062 267.460938 206.925781 272.21875 C 212.902344 288.335938 220.796875 299.308594 231.679688 306.90625 C 233.0625 307.828125 234.441406 308.828125 235.820312 309.746094 C 241.183594 313.429688 246.703125 317.269531 252.070312 321.183594 C 252.605469 321.644531 253.21875 322.027344 253.753906 322.488281 C 256.128906 323.945312 258.199219 325.25 260.191406 326.476562 C 260.652344 326.785156 260.960938 327.476562 260.960938 327.9375 C 260.960938 328.089844 260.804688 328.550781 260.574219 329.085938 Z M 129.976562 337.527344 C 129.976562 337.453125 129.976562 337.300781 129.976562 337.222656 C 129.898438 337.300781 129.898438 337.375 129.824219 337.375 C 129.59375 337.605469 129.363281 337.757812 129.132812 337.988281 C 128.136719 338.910156 127.371094 339.601562 126.375 339.910156 C 126.296875 339.910156 126.296875 339.910156 126.21875 339.910156 C 126.832031 340.597656 127.292969 341.367188 127.753906 342.289062 C 129.210938 340.828125 129.976562 339.21875 129.976562 337.527344 Z M 132.8125 330.546875 C 132.734375 330.699219 132.582031 330.851562 132.429688 331.003906 L 132.199219 331.160156 C 131.355469 331.773438 130.664062 332.234375 129.898438 332.308594 C 129.824219 332.308594 129.824219 332.308594 129.746094 332.308594 C 129.4375 332.308594 129.132812 332.234375 128.824219 332.234375 C 129.59375 333.078125 130.359375 333.921875 131.046875 334.84375 C 131.355469 334.613281 131.96875 334.074219 132.046875 333.921875 C 132.65625 332.695312 132.886719 331.621094 132.8125 330.546875 Z M 132.199219 322.488281 C 131.660156 322.949219 131.046875 323.40625 130.433594 323.5625 C 130.972656 324.175781 131.585938 324.789062 132.121094 325.328125 C 132.273438 324.40625 132.273438 323.40625 132.199219 322.488281 Z M 105.144531 274.75 C 105.21875 274.445312 105.144531 274.136719 105.144531 273.832031 C 105.144531 273.675781 105.066406 273.445312 105.066406 273.292969 C 104.988281 271.527344 104.835938 269.761719 104.683594 268.074219 C 104.375 264.160156 104.070312 260.171875 104.300781 256.257812 C 104.300781 255.796875 104.375 255.410156 104.375 254.953125 C 102.921875 253.722656 101.3125 252.34375 99.777344 250.808594 C 92.191406 243.210938 90.582031 233.539062 95.027344 222.105469 C 97.09375 216.886719 100.085938 211.359375 104.53125 204.761719 C 108.515625 198.851562 109.128906 192.097656 106.445312 183.65625 C 104.53125 177.59375 101.769531 171.53125 98.476562 166.082031 C 92.804688 156.640625 88.050781 146.585938 83.53125 136.765625 C 79.160156 127.324219 74.5625 117.65625 69.199219 108.523438 C 68.8125 107.910156 68.429688 107.21875 68.046875 106.527344 C 65.519531 117.347656 62.300781 128.78125 56.476562 139.679688 C 55.863281 140.910156 55.171875 142.058594 54.558594 143.289062 C 49.269531 153.265625 43.828125 163.625 35.472656 171.835938 C 34.09375 173.140625 32.714844 174.445312 31.335938 175.675781 C 29.648438 177.207031 27.964844 178.742188 26.355469 180.433594 C 16.082031 190.945312 15.855469 197.007812 20.527344 208.75 C 24.207031 218.191406 31.414062 225.019531 37.238281 229.933594 C 43.214844 234.996094 48.351562 239.832031 52.949219 244.820312 C 53.253906 245.203125 53.640625 245.589844 54.023438 246.125 C 54.097656 246.203125 55.707031 248.273438 56.476562 249.347656 C 57.011719 250.195312 57.699219 251.191406 58.238281 252.265625 C 59.082031 254.03125 59.464844 256.714844 59.539062 256.792969 C 60 259.480469 60.460938 262.320312 60.765625 265.234375 C 60.921875 266.847656 61.148438 268.457031 61.304688 270.070312 C 61.917969 275.367188 62.53125 280.816406 62.683594 286.261719 C 62.835938 290.023438 62.757812 293.9375 62.683594 297.621094 C 62.605469 301.460938 62.53125 305.371094 62.683594 309.210938 C 62.757812 311.972656 63.910156 314.964844 65.441406 316.960938 C 67.433594 319.492188 70.117188 321.566406 72.722656 323.5625 L 73.871094 324.484375 C 79.621094 328.933594 84.371094 334.691406 87.976562 341.597656 C 91.808594 348.886719 97.171875 353.109375 104.375 354.644531 C 109.050781 355.640625 113.496094 355.792969 118.019531 355.027344 C 121.929688 354.414062 125.605469 350.804688 126.375 346.816406 C 126.757812 344.820312 126.449219 343.132812 125.53125 341.671875 C 125.683594 342.058594 125.683594 342.515625 125.453125 342.902344 C 123.613281 346.355469 121.46875 347.890625 118.097656 347.890625 C 117.636719 347.890625 117.175781 347.890625 116.714844 347.8125 C 115.03125 347.660156 113.265625 347.429688 111.65625 346.738281 C 110.660156 346.355469 109.433594 345.125 109.28125 344.050781 C 109.050781 342.210938 109.742188 340.367188 111.199219 339.0625 C 112.578125 337.835938 114.339844 337.300781 116.027344 337.757812 C 118.324219 338.296875 120.625 339.21875 122.847656 340.0625 C 123.460938 340.292969 124.074219 340.523438 124.6875 340.753906 C 124.839844 340.828125 124.917969 340.90625 125.070312 340.984375 C 124.304688 340.0625 123.15625 339.21875 121.699219 338.449219 C 119.859375 337.453125 117.941406 336.609375 116.027344 335.765625 C 114.1875 334.917969 112.195312 334 110.355469 333.078125 C 103.992188 329.777344 99.394531 320.492188 100.621094 313.355469 L 101.15625 310.132812 L 101.464844 313.355469 C 102.613281 324.328125 107.289062 330.929688 116.179688 334.074219 L 116.714844 334.304688 C 118.25 334.84375 119.78125 335.457031 121.316406 336.148438 C 121.238281 335.765625 121.316406 335.457031 121.390625 335.148438 C 121.699219 334.074219 123.765625 333.15625 124.839844 333.386719 C 126.144531 333.613281 127.371094 334.230469 128.75 334.917969 L 129.667969 335.378906 C 129.667969 335.378906 129.746094 335.378906 129.746094 335.457031 C 129.285156 334.304688 128.519531 333.230469 127.445312 332.308594 C 124.839844 330.007812 122.464844 327.398438 120.472656 324.636719 C 118.632812 322.027344 116.945312 319.1875 115.335938 316.5 C 114.648438 315.351562 113.957031 314.277344 113.265625 313.125 C 113.039062 312.742188 112.808594 312.355469 112.578125 311.894531 L 112.042969 310.976562 L 112.425781 310.746094 C 112.808594 310.515625 112.960938 310.4375 116.488281 315.503906 C 118.324219 318.1875 120.394531 321.257812 121.621094 323.253906 C 122.925781 325.328125 124.304688 327.167969 125.835938 328.933594 C 125.914062 328.320312 126.066406 327.9375 126.375 327.78125 C 127.292969 327.246094 128.671875 327.09375 129.746094 327.398438 C 130.589844 327.628906 131.355469 328.089844 132.199219 328.703125 L 132.429688 328.855469 C 131.96875 327.628906 131.203125 326.402344 130.050781 325.171875 C 128.597656 323.5625 127.371094 321.796875 126.144531 320.109375 C 125.53125 319.1875 124.839844 318.265625 124.152344 317.34375 L 123.308594 316.269531 C 121.773438 314.199219 120.164062 312.125 118.480469 310.132812 C 117.175781 308.597656 115.71875 307.136719 114.339844 305.679688 C 113.726562 305.066406 113.113281 304.375 112.5 303.761719 L 109.511719 300.613281 L 113.113281 303.148438 C 115.875 305.066406 118.097656 306.984375 119.933594 309.132812 C 122.464844 311.972656 124.226562 314.351562 125.683594 316.730469 C 126.066406 317.421875 126.832031 318.648438 127.753906 320.03125 C 127.753906 319.800781 127.753906 319.648438 127.828125 319.417969 C 127.90625 318.957031 128.136719 318.574219 128.367188 318.417969 C 129.132812 317.960938 129.746094 317.804688 130.359375 317.960938 C 130.820312 318.113281 131.203125 318.34375 131.507812 318.726562 C 131.355469 318.34375 131.203125 317.882812 130.972656 317.574219 C 127.984375 312.050781 123.613281 307.828125 118.9375 303.609375 C 117.484375 302.304688 112.960938 297.546875 112.882812 296.777344 L 112.882812 296.625 L 113.34375 296.164062 L 125.222656 307.445312 C 125.378906 307.136719 125.605469 306.832031 125.914062 306.675781 C 125.988281 306.675781 126.066406 306.601562 126.144531 306.601562 C 125.453125 303.378906 123.691406 300.539062 120.855469 297.773438 L 120.546875 297.546875 C 118.097656 295.242188 115.566406 292.863281 112.730469 290.945312 C 106.371094 286.417969 103.992188 281.351562 105.144531 274.75 Z M 132.65625 233.691406 C 132.734375 233.769531 132.734375 233.921875 132.8125 234 L 132.886719 234 C 132.964844 234.152344 133.042969 234.230469 133.117188 234.230469 L 133.269531 234.308594 L 133.808594 234.078125 L 133.65625 233.691406 C 133.195312 232.695312 132.8125 231.621094 132.351562 230.625 C 131.355469 228.320312 130.433594 225.941406 129.515625 223.5625 C 128.597656 221.105469 127.675781 218.496094 126.832031 216.042969 L 126.21875 214.351562 C 124.304688 208.828125 125.070312 203.226562 126.066406 198.542969 C 127.0625 194.015625 128.136719 188.644531 128.824219 183.195312 L 127.984375 183.042969 C 127.90625 183.425781 127.828125 183.730469 127.753906 184.039062 C 127.523438 184.808594 127.371094 185.574219 127.214844 186.339844 C 126.910156 187.722656 126.601562 189.179688 126.296875 190.5625 C 125.453125 194.628906 124.535156 198.773438 123.765625 202.917969 C 123 206.984375 123.382812 211.054688 124.917969 215.199219 C 125.988281 218.574219 131.125 230.929688 132.65625 233.691406 Z M 357.300781 230.855469 C 350.09375 241.136719 340.976562 250.039062 334 260.554688 C 332.238281 263.164062 330.476562 265.773438 328.863281 268.457031 C 327.410156 270.914062 326.566406 273.753906 324.496094 275.75 C 322.734375 277.4375 320.128906 276.824219 318.058594 275.597656 C 315.453125 274.0625 313.152344 271.835938 310.625 270.222656 C 305.949219 275.441406 301.195312 280.429688 296.523438 285.648438 C 293.300781 289.257812 289.242188 292.710938 286.941406 296.929688 C 284.640625 301.152344 283.414062 305.988281 281.117188 310.207031 C 280.121094 311.972656 278.585938 312.972656 277.054688 311.4375 C 276.363281 310.746094 276.289062 309.363281 275.367188 308.828125 C 274.753906 308.441406 273.988281 308.828125 273.296875 308.367188 C 272.378906 307.753906 271.535156 306.140625 270.464844 305.371094 C 269.464844 304.683594 268.546875 305.144531 268.46875 303.53125 C 268.394531 302.609375 269.390625 301.230469 270.003906 300.613281 C 271.6875 298.925781 274.523438 297.851562 276.519531 296.546875 C 278.816406 294.9375 281.117188 293.324219 283.1875 291.480469 C 287.402344 287.875 290.773438 283.5 294.605469 279.585938 C 298.207031 275.902344 302.421875 272.601562 305.640625 268.535156 C 307.328125 266.464844 307.097656 266.847656 305.335938 264.851562 C 304.03125 263.394531 301.582031 260.015625 301.65625 258.019531 C 301.734375 256.027344 304.339844 255.257812 306.027344 254.183594 C 308.476562 252.648438 310.855469 251.113281 313.230469 249.347656 C 317.675781 245.972656 322.121094 242.59375 326.640625 239.371094 C 333.921875 234.078125 341.359375 229.242188 348.484375 223.714844 C 351.476562 221.414062 355.613281 216.808594 358.984375 220.648438 C 362.433594 224.484375 359.90625 227.09375 357.300781 230.855469 Z M 286.863281 294.859375 C 285.332031 294.78125 284.257812 293.859375 283.261719 292.785156 C 279.738281 295.164062 276.363281 297.699219 272.761719 300 C 271.917969 300.539062 269.238281 302.378906 269.851562 303.683594 C 270.15625 304.296875 270.847656 304.066406 271.304688 304.375 C 272.074219 304.835938 272.53125 305.527344 273.144531 306.21875 C 273.375 306.449219 273.988281 307.292969 274.21875 307.367188 C 274.679688 307.597656 275.445312 307.445312 275.90625 307.675781 C 276.976562 308.210938 277.667969 311.359375 279.199219 311.128906 C 280.503906 310.898438 281.269531 307.214844 281.652344 306.21875 C 282.417969 304.296875 283.953125 302.226562 284.105469 300.15625 C 282.878906 302.535156 281.5 304.914062 279.8125 306.984375 C 281.5 303.378906 282.957031 298.464844 285.484375 295.394531 C 286.023438 295.703125 283.800781 299.234375 284.410156 299.539062 C 285.253906 298.003906 286.023438 296.394531 286.863281 294.859375 Z M 307.941406 267.691406 C 302.882812 272.988281 297.59375 278.050781 292.535156 283.347656 C 290.390625 285.574219 287.246094 288.335938 285.253906 291.023438 C 285.023438 291.328125 284.027344 292.171875 284.027344 292.171875 L 287.324219 293.785156 C 287.324219 293.785156 288.398438 292.710938 288.855469 292.25 C 293.378906 287.722656 297.59375 282.808594 301.886719 278.050781 C 304.03125 275.671875 306.714844 273.371094 308.632812 270.835938 C 309.703125 269.457031 309.628906 268.6875 307.941406 267.691406 Z M 359.214844 223.027344 C 356.609375 217.191406 352.242188 221.796875 349.175781 224.484375 C 344.5 228.550781 339.136719 231.851562 334 235.304688 C 323.347656 242.441406 313.304688 250.347656 302.652344 257.484375 C 303.726562 260.015625 304.339844 262.242188 306.253906 264.316406 C 307.40625 265.617188 308.785156 266.695312 310.011719 267.921875 C 311.3125 269.148438 312.539062 270.222656 314.074219 271.222656 C 316.296875 272.679688 318.210938 274.828125 320.816406 275.519531 C 323.421875 276.210938 324.265625 274.828125 325.570312 272.679688 C 327.027344 270.222656 328.328125 267.691406 329.9375 265.234375 C 333.15625 260.324219 336.300781 255.796875 340.207031 251.34375 C 344.347656 246.585938 348.101562 241.519531 351.933594 236.609375 C 354.15625 233.539062 360.980469 227.09375 359.214844 223.027344 Z M 349.480469 232.695312 C 345.878906 236.6875 342.046875 240.523438 338.597656 244.746094 C 335.992188 247.890625 333.386719 251.113281 331.011719 254.492188 C 329.863281 256.101562 326.03125 260.246094 326.257812 262.394531 C 330.933594 256.332031 335.304688 250.039062 340.132812 244.128906 C 345.265625 237.914062 351.398438 232.464844 356.226562 226.019531 C 354.539062 225.710938 350.402344 231.699219 349.480469 232.695312 Z M 315.605469 253.417969 C 315.070312 253.800781 309.628906 257.867188 309.78125 258.175781 C 311.773438 258.558594 316.21875 254.105469 317.597656 253.03125 C 321.277344 250.195312 324.804688 247.199219 328.40625 244.285156 C 323.730469 245.820312 319.4375 250.5 315.605469 253.417969 Z M 319.972656 270.453125 C 319.820312 270.683594 318.671875 272.371094 318.902344 272.601562 C 319.207031 272.449219 323.5 267.539062 322.964844 267.230469 C 322.582031 267.078125 320.203125 270.148438 319.972656 270.453125 Z M 274.523438 303.148438 C 274.601562 303.222656 277.898438 300.15625 277.972656 300.078125 C 278.511719 299.617188 283.570312 294.320312 283.722656 294.476562 C 283.339844 294.320312 279.355469 297.929688 279.125 298.160156 C 278.96875 298.3125 273.453125 302.6875 274.523438 303.148438 Z M 277.132812 305.066406 C 278.28125 303.683594 279.582031 302.535156 280.734375 301.230469 C 281.117188 300.769531 283.644531 296.394531 283.800781 296.394531 C 282.34375 296.316406 276.902344 303.839844 277.132812 305.066406 Z M 277.132812 305.066406 " fill-opacity="1" fill-rule="nonzero"/></g></svg>